<svg width="1161" height="430" xmlns="http://www.w3.org/2000/svg">
 <!-- Created with Method Draw - http://github.com/duopixel/Method-Draw/ -->

 <g>
  <title>background</title>
  <rect fill="#fff" id="canvas_background" height="432" width="1163" y="-1" x="-1"/>
  <g display="none" overflow="visible" y="0" x="0" height="100%" width="100%" id="canvasGrid">
   <rect fill="url(#gridpattern)" stroke-width="0" y="0" x="0" height="100%" width="100%"/>
  </g>
 </g>
 <g>
  <title>Layer 1</title>
  <rect stroke="#000" id="svg_3" height="62" width="202.000008" y="60.453125" x="34" stroke-opacity="null" stroke-width="1.5" fill="#007fff"/>
  <text style="cursor: move;" font-weight="bold" stroke="#000" transform="matrix(0.9939554333686829,0,0,1,2.293535251170397,0) " xml:space="preserve" text-anchor="start" font-family="Helvetica, Arial, sans-serif" font-size="24" id="svg_5" y="99.476563" x="42.966175" stroke-opacity="null" stroke-width="0" fill="#ffffff">_vars.scss</text>
  <rect stroke="#000" id="svg_6" height="62" width="202.000008" y="136.453125" x="34" stroke-opacity="null" stroke-width="1.5" fill="#007fff"/>
  <text font-weight="bold" stroke="#000" transform="matrix(0.9939554333686829,0,0,1,2.293535251170397,0) " xml:space="preserve" text-anchor="start" font-family="Helvetica, Arial, sans-serif" font-size="24" id="svg_7" y="175.476563" x="42.966175" stroke-opacity="null" stroke-width="0" fill="#ffffff">_navigatie.sass</text>
  <rect stroke="#000" id="svg_8" height="62" width="202.000008" y="211.453125" x="35" stroke-opacity="null" stroke-width="1.5" fill="#007fff"/>
  <text style="cursor: move;" font-weight="bold" stroke="#000" transform="matrix(0.9939554333686829,0,0,1,2.293535251170397,0) " xml:space="preserve" text-anchor="start" font-family="Helvetica, Arial, sans-serif" font-size="24" id="svg_9" y="250.476563" x="43.972256" stroke-opacity="null" stroke-width="0" fill="#ffffff">_layout.scss</text>
  <rect stroke="#000" id="svg_10" height="62" width="202.000008" y="288.453125" x="35" stroke-opacity="null" stroke-width="1.5" fill="#007fff"/>
  <text style="cursor: move;" font-weight="bold" stroke="#000" transform="matrix(0.9939554333686829,0,0,1,2.293535251170397,0) " xml:space="preserve" text-anchor="start" font-family="Helvetica, Arial, sans-serif" font-size="24" id="svg_11" y="327.476563" x="43.972256" stroke-opacity="null" stroke-width="0" fill="#ffffff">_mixins.sass</text>
  <rect stroke="#000" id="svg_12" height="62" width="202.000008" y="179.453125" x="459" stroke-opacity="null" stroke-width="1.5" fill="#007fff"/>
  <text font-weight="bold" stroke="#000" transform="matrix(0.9939554333686829,0,0,1,2.293535251170397,0) " xml:space="preserve" text-anchor="start" font-family="Helvetica, Arial, sans-serif" font-size="24" id="svg_13" y="218.476563" x="490.672365" stroke-opacity="null" stroke-width="0" fill="#ffffff">main.scss</text>
  <rect stroke="#000" id="svg_14" height="62" width="202.000008" y="180.453125" x="926" stroke-opacity="null" stroke-width="1.5" fill="#ff7f00"/>
  <text font-weight="bold" stroke="#000" transform="matrix(0.9939554333686829,0,0,1,2.293535251170397,0) " xml:space="preserve" text-anchor="start" font-family="Helvetica, Arial, sans-serif" font-size="24" id="svg_15" y="219.476563" x="975.603563" stroke-opacity="null" stroke-width="0" fill="#ffffff">style.css</text>
  <path transform="rotate(28.333505630493164 351.9332275390626,143.3704376220703) " id="svg_27" d="m409.879572,155.044888c4.60612,-2.092015 9.011357,-4.503833 12.892062,-6.668837l-116.279522,-0.993429l-15.949541,8.55531l-50.528497,-0.734798c6.331282,-3.895128 13.26697,-8.470853 18.409169,-11.907675l-18.291751,-11.553876l53.912774,0l10.969541,7.218943l118.718544,0l-14.726116,-7.202787c4.544678,-2.269872 11.270544,-5.299061 14.919089,-6.887309l39.927025,18.357614l-40.017839,18.642392l-13.954953,-6.825551l0.000015,0.000004z" stroke-width="1.5" fill="#666666"/>
  <path stroke="#000" transform="rotate(-22.318225860595703 350.9130859375,274.4082031250001) " id="svg_28" d="m409.438365,286.082672c4.652139,-2.092015 9.101386,-4.503833 13.020861,-6.668836l-117.441228,-0.99343l-16.108888,8.55531l-51.033308,-0.734797c6.394535,-3.895128 13.399515,-8.470853 18.593088,-11.907675l-18.474497,-11.553877l54.451397,0l11.079134,7.218944l119.904617,0l-14.87324,-7.202787c4.590083,-2.269872 11.383144,-5.299061 15.068141,-6.88731l40.325921,18.357614l-40.417642,18.642392l-14.094372,-6.825551l0.000016,0.000003z" fill-opacity="null" stroke-opacity="null" stroke-width="1.5" fill="#000000"/>
  <path stroke="#000" transform="rotate(15.859992027282715 333.436737060547,182.72077941894514) " id="svg_29" d="m380.136674,192.011943c3.712148,-1.664939 7.2624,-3.584396 10.389923,-5.307423l-93.711565,-0.790626l-12.853996,6.808782l-40.72174,-0.584791c5.102483,-3.099955 10.692067,-6.741566 14.83625,-9.476776l-14.741621,-9.195204l43.449184,0l8.840532,5.745229l95.677212,0l-11.868018,-5.73237c3.662631,-1.806488 9.083116,-4.217281 12.023538,-5.481296l32.177841,14.609989l-32.251029,14.836631l-11.246525,-5.432145l0.000013,0.000002z" fill-opacity="null" stroke-opacity="null" stroke-width="1.5" fill="#000000"/>
  <path transform="rotate(-10.692309379577637 330.1783447265633,233.09368896484372) " id="svg_30" d="m373.337526,242.363648c3.430698,-1.661139 6.711774,-3.576213 9.602172,-5.295308l-86.606473,-0.788821l-11.879422,6.793239l-37.634269,-0.583457c4.715619,-3.092879 9.881408,-6.726177 13.711384,-9.455144l-13.62393,-9.174215l40.154923,0l8.170254,5.732114l88.423088,0l-10.9682,-5.719285c3.384935,-1.802364 8.394446,-4.207655 11.111928,-5.468784l29.738158,14.576639l-29.805797,14.802763l-10.393828,-5.419745l0.000012,0.000002z" stroke-opacity="null" stroke-width="1.5" fill="#7f7f7f"/>
  <g stroke="null" id="svg_20">
   <path stroke="null" id="svg_31" d="m429.765867,226.288009c-7.200451,0.032145 -13.436555,1.767967 -18.644024,4.339557c-1.896547,-3.825241 -3.857384,-7.168306 -4.178833,-9.675606c-0.385739,-2.925184 -0.803621,-4.661006 -0.353594,-8.132651s2.475155,-8.38981 2.44301,-8.743404c-0.032145,-0.353594 -0.450029,-2.121561 -4.596716,-2.153706c-4.146688,-0.032145 -7.714767,0.803621 -8.132651,1.896547c-0.417884,1.092925 -1.221504,3.56808 -1.703678,6.139669c-0.739333,3.760949 -8.293375,17.197504 -12.568645,24.205085c-1.414374,-2.732314 -2.603733,-5.143179 -2.860892,-7.071871c-0.385739,-2.925182 -0.803622,-4.661006 -0.353594,-8.132651s2.475155,-8.38981 2.44301,-8.743404c-0.032145,-0.353594 -0.450029,-2.121561 -4.596716,-2.153706c-4.146688,-0.032145 -7.714769,0.803622 -8.132651,1.896547c-0.417884,1.092926 -0.867912,3.664514 -1.703679,6.139669c-0.835765,2.475155 -10.89711,24.847983 -13.53299,30.666204c-1.350084,2.957328 -2.507298,5.336049 -3.343065,6.943292s-0.06429,0.096435 -0.12858,0.289304c-0.707188,1.382229 -1.12507,2.153706 -1.12507,2.153706l0,0.032145c-0.546463,1.028637 -1.157216,1.960837 -1.44652,1.960837c-0.192869,0 -0.610751,-2.700169 0.096435,-6.396829c1.510808,-7.779057 5.07889,-19.865528 5.046745,-20.283412c-0.032145,-0.225014 0.675043,-2.314431 -2.346575,-3.4395c-2.925184,-1.060781 -3.985963,0.707188 -4.243122,0.707188c-0.257159,0 -0.450029,0.642896 -0.450029,0.642896s3.246632,-13.629424 -6.236104,-13.629424c-5.914655,0 -14.143743,6.493263 -18.193996,12.375775c-2.539445,1.382229 -8.036216,4.371702 -13.822294,7.554043c-2.217996,1.221506 -4.500282,2.475155 -6.653988,3.664516c-0.160723,-0.160724 -0.289302,-0.321449 -0.450027,-0.482173c-11.507863,-12.279339 -32.75562,-20.958455 -31.855565,-37.448771c0.321449,-6.01109 2.410865,-21.79422 40.856128,-40.952563c31.501969,-15.686694 56.703546,-11.379282 61.043103,-1.800112c6.236104,13.661569 -13.4687,39.088161 -46.192175,42.752675c-12.47221,1.382229 -19.029763,-3.439502 -20.669151,-5.239614c-1.703678,-1.896547 -1.960837,-1.992982 -2.603735,-1.639388c-1.06078,0.578608 -0.385737,2.250141 0,3.246632c0.964347,2.539443 4.982455,7.039725 11.829312,9.289865c6.01109,1.960837 20.637006,3.053763 38.316683,-3.793094c19.865528,-7.650478 35.32721,-28.962526 30.794783,-46.802928c-4.628861,-18.129704 -34.684314,-24.076506 -63.132521,-13.983016c-16.940345,6.01109 -35.26292,15.461681 -48.442316,27.773165c-15.654551,14.658059 -18.161849,27.419573 -17.133214,32.75562c3.664514,18.933328 29.766148,31.276957 40.21323,40.406099c-0.514318,0.289304 -0.996492,0.546463 -1.44652,0.803622c-5.239612,2.603733 -25.137286,13.018671 -30.119741,24.012216c-5.625351,12.472208 0.932202,21.408481 5.239614,22.629986c13.436555,3.728806 27.194557,-2.989472 34.587877,-14.015161s6.493263,-25.426591 3.085908,-31.984144c-0.032145,-0.096435 -0.096435,-0.160724 -0.12858,-0.257159c1.350084,-0.803621 2.732312,-1.607243 4.114543,-2.410865c2.668024,-1.575098 5.271757,-3.021616 7.554043,-4.275267c-1.285794,3.471647 -2.217996,7.650479 -2.700168,13.693714c-0.578608,7.071871 2.346575,16.233159 6.139669,19.833383c1.671533,1.575098 3.696659,1.607243 4.95031,1.607243c4.435992,0 6.428973,-3.664514 8.646969,-8.036216c2.732312,-5.336049 5.143178,-11.540008 5.143178,-11.540008s-3.021616,16.779622 5.239614,16.779622c3.021618,0 6.043235,-3.88953 7.39332,-5.882512l0,0.032145s0.06429,-0.12858 0.225014,-0.385737c0.321447,-0.482173 0.482172,-0.771477 0.482172,-0.771477l0,-0.096435c1.221506,-2.089416 3.88953,-6.879002 7.907638,-14.786639c5.207467,-10.222069 10.189922,-22.983581 10.189922,-22.983581s0.450029,3.118053 1.992982,8.293375c0.900057,3.053763 2.796604,6.396829 4.307412,9.643461c-1.221504,1.671533 -1.960837,2.635879 -1.960837,2.635879s0,0.032145 0.032145,0.06429c-0.964345,1.285794 -2.057271,2.668023 -3.182341,4.018108c-4.114545,4.88602 -9.000563,10.479226 -9.643461,12.086469c-0.771477,1.896549 -0.578608,3.310922 0.900057,4.403847c1.092925,0.835767 3.021616,0.964347 5.046743,0.803622c3.696661,-0.257159 6.300394,-1.157214 7.554045,-1.735822c1.992982,-0.707188 4.307412,-1.832257 6.493263,-3.407357c4.018108,-2.957327 6.461118,-7.200449 6.236104,-12.793657c-0.12858,-3.085906 -1.12507,-6.171814 -2.346575,-9.064853c0.353594,-0.514317 0.739333,-1.06078 1.092926,-1.607243c6.364684,-9.289867 11.282849,-19.47979 11.282849,-19.47979s0.450027,3.118051 1.992982,8.293375c0.771476,2.603735 2.282286,5.464628 3.664514,8.261231c-5.978945,4.853875 -9.675606,10.479228 -10.9614,14.175887c-2.37872,6.846857 -0.514318,9.932763 2.989473,10.639951c1.575098,0.321449 3.825239,-0.417884 5.496772,-1.12507c2.089416,-0.707188 4.596716,-1.832259 6.943292,-3.568081c4.018108,-2.957327 7.907637,-7.104016 7.650478,-12.729367c-0.096435,-2.539445 -0.803621,-5.07889 -1.735822,-7.5219c5.046745,-2.121561 11.604298,-3.278776 19.961963,-2.314431c17.904692,2.089416 21.408481,13.27583 20.73344,17.936836c-0.675043,4.693151 -4.435992,7.264741 -5.689643,8.036218c-1.253649,0.771476 -1.639388,1.06078 -1.542953,1.639388c0.160724,0.835767 0.739333,0.803622 1.800112,0.610753c1.478665,-0.257159 9.386302,-3.793096 9.739896,-12.440065c0.514318,-10.929255 -9.997055,-22.951435 -28.608932,-22.855zm-137.997918,46.513624c-5.914655,6.461118 -14.208031,8.904128 -17.776112,6.846855c-3.825239,-2.217996 -2.314431,-11.732876 4.982455,-18.611877c4.435992,-4.178833 10.157779,-8.036216 13.950873,-10.414937c0.86791,-0.514318 2.121561,-1.285796 3.664514,-2.217996c0.257159,-0.160724 0.385739,-0.225014 0.385739,-0.225014c0.289304,-0.192869 0.610753,-0.353594 0.932202,-0.546463c2.668023,9.772041 0.096435,18.386865 -6.139671,25.169432zm43.202703,-29.38041c-2.057271,5.046745 -6.396829,17.904692 -9.032708,17.229649c-2.250141,-0.578608 -3.632369,-10.382792 -0.450029,-20.026253c1.607243,-4.853875 5.0146,-10.639951 7.039726,-12.890092c3.246631,-3.632369 6.814712,-4.789586 7.650478,-3.343065c1.125071,1.896547 -3.921673,15.879563 -5.207467,19.029761zm35.680804,17.036779c-0.867912,0.450029 -1.671534,0.739333 -2.057271,0.514318c-0.289304,-0.160724 0.353592,-0.771477 0.353592,-0.771477s4.468137,-4.789586 6.236106,-6.975437c1.028635,-1.285794 2.217996,-2.796602 3.50379,-4.468137c0,0.160724 0.032145,0.321449 0.032145,0.514318c-0.032145,5.753932 -5.561063,9.643461 -8.068361,11.186414zm27.516006,-6.268249c-0.642898,-0.450029 -0.546463,-1.960837 1.607243,-6.653988c0.835767,-1.832257 2.764459,-4.918165 6.107526,-7.875492c0.385737,1.221504 0.610751,2.378719 0.610751,3.471645c-0.032145,7.232596 -5.207467,9.932763 -8.32552,11.057835z" fill="#bf4080"/>
  </g>
  <g stroke="null" id="svg_22">
   <path stroke="null" id="svg_33" d="m859.15697,272.382797c-6.85055,0.030583 -12.783615,1.682054 -17.738031,4.128679c-1.804385,-3.639355 -3.669937,-6.819967 -3.975765,-9.205426c-0.366994,-2.783037 -0.764569,-4.434508 -0.336411,-7.737451s2.354877,-7.982113 2.324294,-8.318524c-0.030583,-0.336411 -0.42816,-2.018466 -4.373342,-2.049049c-3.945183,-0.030582 -7.339874,0.76457 -7.737451,1.804386c-0.397577,1.039815 -1.162146,3.394691 -1.620889,5.841317c-0.703405,3.578188 -7.890364,16.361803 -11.95788,23.028856c-1.345643,-2.599539 -2.477206,-4.89325 -2.721869,-6.728219c-0.366994,-2.783034 -0.764571,-4.434507 -0.336411,-7.73745s2.354877,-7.982114 2.324294,-8.318525c-0.030583,-0.336411 -0.42816,-2.018465 -4.373342,-2.049048c-3.945182,-0.030583 -7.339875,0.764571 -7.737451,1.804386c-0.397577,1.039816 -0.825736,3.486439 -1.62089,5.841316c-0.795152,2.354877 -10.367573,23.640513 -12.875363,29.176001c-1.284478,2.813619 -2.385458,5.076747 -3.180612,6.605888s-0.061166,0.091748 -0.122331,0.275245c-0.672823,1.31506 -1.070398,2.049048 -1.070398,2.049048l0,0.030583c-0.519908,0.978651 -1.100982,1.865551 -1.376227,1.865551c-0.183497,0 -0.581073,-2.568956 0.091748,-6.085979c1.437392,-7.401039 4.832085,-18.900177 4.801502,-19.297754c-0.030583,-0.214079 0.642239,-2.201962 -2.232545,-3.27236c-2.783037,-1.009233 -3.792269,0.672823 -4.036931,0.672823c-0.244663,0 -0.42816,0.611655 -0.42816,0.611655s3.088865,-12.967112 -5.933065,-12.967112c-5.627237,0 -13.456437,6.177728 -17.309871,11.774383c-2.416043,1.31506 -7.645702,4.159262 -13.150609,7.18696c-2.110214,1.162147 -4.281594,2.354876 -6.330642,3.486441c-0.152913,-0.152914 -0.275244,-0.305828 -0.428158,-0.458742c-10.948647,-11.682633 -31.163884,-19.939994 -30.307566,-35.628975c0.305828,-5.718985 2.293711,-20.735145 38.870753,-38.962502c29.971153,-14.92441 53.948078,-10.826313 58.076757,-1.712637c5.933065,12.997695 -12.814198,37.188699 -43.947499,40.675139c-11.866132,1.31506 -18.105025,-3.272362 -19.664748,-4.984999c-1.620888,-1.804385 -1.865551,-1.896134 -2.477208,-1.559723c-1.009232,0.550491 -0.366992,2.140797 0,3.088865c0.917485,2.416041 4.740336,6.697634 11.254475,8.838431c5.718985,1.865551 19.634165,2.905368 36.454711,-3.608771c18.900177,-7.278708 33.610509,-27.555113 29.298333,-44.528573c-4.403925,-17.248704 -32.998854,-22.906525 -60.064642,-13.303521c-16.11714,5.718985 -33.549343,14.710332 -46.088295,26.423547c-14.893829,13.945761 -17.279287,26.087139 -16.300638,31.163884c3.48644,18.013277 28.319684,29.757075 38.259097,38.442594c-0.489326,0.275245 -0.948068,0.519908 -1.376228,0.764571c-4.984997,2.477206 -23.915757,12.386038 -28.656093,22.845359c-5.351991,11.86613 0.886902,20.368151 4.984999,21.530297c12.783615,3.547608 25.873057,-2.8442 32.907104,-13.334104s6.177727,-24.191004 2.93595,-30.429897c-0.030583,-0.091749 -0.091748,-0.152915 -0.122331,-0.244663c1.284477,-0.764569 2.599537,-1.52914 3.914599,-2.293711c2.538374,-1.498557 5.01558,-2.874783 7.18696,-4.067514c-1.223312,3.302945 -2.110214,7.27871 -2.568955,13.028278c-0.550491,6.728219 2.232545,15.44432 5.841317,18.869594c1.590305,1.498557 3.517022,1.52914 4.709753,1.52914c4.220428,0 6.116562,-3.48644 8.226776,-7.645702c2.599537,-5.076747 4.893248,-10.979229 4.893248,-10.979229s-2.874783,15.964228 4.984999,15.964228c2.874785,0 5.749568,-3.700521 7.034047,-5.596656l0,0.030583s0.061166,-0.122331 0.21408,-0.366992c0.305827,-0.458743 0.458741,-0.733988 0.458741,-0.733988l0,-0.091749c1.162148,-1.987882 3.700521,-6.544721 7.523372,-14.068092c4.954414,-9.725335 9.694751,-21.86671 9.694751,-21.86671s0.428159,2.966533 1.896134,7.890364c0.856319,2.905368 2.660705,6.08598 4.098096,9.174844c-1.162146,1.590306 -1.865551,2.507791 -1.865551,2.507791s0,0.030583 0.030583,0.061166c-0.917484,1.223311 -1.9573,2.538372 -3.027698,3.822851c-3.914601,4.648587 -8.563187,9.969996 -9.174843,11.499136c-0.733988,1.804387 -0.550491,3.15003 0.856319,4.189845c1.039815,0.795153 2.874783,0.917485 4.8015,0.764571c3.517024,-0.244663 5.994231,-1.100981 7.186961,-1.651472c1.896134,-0.672822 4.098097,-1.74322 6.177728,-3.241779c3.822851,-2.813617 6.147145,-6.850548 5.933065,-12.171958c-0.122331,-2.935949 -1.070398,-5.871899 -2.232545,-8.624353c0.336411,-0.489323 0.703405,-1.009232 1.039816,-1.52914c6.055396,-8.838432 10.734567,-18.533183 10.734567,-18.533183s0.428158,2.966532 1.896134,7.890365c0.733986,2.477208 2.171379,5.199079 3.48644,7.859782c-5.688403,4.618005 -9.205427,9.969997 -10.428739,13.48702c-2.263128,6.514139 -0.489325,9.450088 2.844202,10.12291c1.498558,0.305828 3.639354,-0.397577 5.22966,-1.070397c1.987883,-0.672823 4.373342,-1.743222 6.605887,-3.394693c3.822851,-2.813618 7.523371,-6.758802 7.278708,-12.110793c-0.091748,-2.416042 -0.764569,-4.832085 -1.651471,-7.156378c4.801502,-2.018466 11.040395,-3.119446 18.991926,-2.201963c17.034625,1.987883 20.368151,12.630701 19.725913,17.065209c-0.642239,4.46509 -4.220428,6.911715 -5.413158,7.645703c-1.192729,0.733987 -1.559723,1.009232 -1.467975,1.559723c0.152914,0.795154 0.703405,0.764571 1.712637,0.581074c1.406811,-0.244663 8.930181,-3.608773 9.266593,-11.835549c0.489325,-10.398155 -9.511255,-21.836125 -27.218702,-21.744377zm-131.292007,44.253327c-5.627236,6.147145 -13.517601,8.471439 -16.912294,6.514137c-3.639354,-2.110214 -2.201963,-11.162724 4.740336,-17.707446c4.220428,-3.975765 9.664169,-7.645702 13.27294,-9.90883c0.825735,-0.489326 2.018466,-1.223314 3.48644,-2.110214c0.244663,-0.152914 0.366994,-0.21408 0.366994,-0.21408c0.275246,-0.183497 0.581074,-0.336411 0.886902,-0.519908c2.538372,9.297175 0.091749,17.493368 -5.841318,23.946341zm41.103299,-27.952689c-1.9573,4.801501 -6.08598,17.034625 -8.59377,16.392386c-2.140797,-0.550491 -3.455857,-9.878247 -0.42816,-19.053091c1.52914,-4.618005 4.770919,-10.12291 6.697636,-12.263707c3.088863,-3.455857 6.483556,-4.556839 7.278708,-3.180612c1.070399,1.804386 -3.731103,15.107908 -4.954414,18.105024zm33.94692,16.208889c-0.825737,0.42816 -1.590308,0.703405 -1.9573,0.489325c-0.275246,-0.152914 0.33641,-0.733988 0.33641,-0.733988s4.25101,-4.556839 5.933066,-6.63647c0.978649,-1.223312 2.110214,-2.660703 3.333526,-4.251011c0,0.152915 0.030583,0.305829 0.030583,0.489326c-0.030583,5.474324 -5.290827,9.174844 -7.676285,10.642818zm26.178885,-5.963648c-0.611657,-0.42816 -0.519908,-1.865551 1.52914,-6.330642c0.795154,-1.74322 2.630122,-4.67917 5.810735,-7.492788c0.366993,1.162146 0.581072,2.263127 0.581072,3.302943c-0.030582,6.881133 -4.954414,9.450088 -7.920947,10.520487z" fill="#bf4080"/>
  </g>
  <path id="svg_26" d="m845.497173,222.76951c4.444824,-1.639688 8.6958,-3.530032 12.440611,-5.226927l-112.207674,-0.778634l-15.391024,6.705515l-48.759102,-0.575923c6.109575,-3.052938 12.80239,-6.639318 17.764522,-9.333044l-17.651215,-9.055743l52.024869,0l10.585412,5.658092l114.561287,0l-14.210441,-5.645429c4.385534,-1.779089 10.875875,-4.153318 14.396656,-5.398162l38.52887,14.388403l-38.616504,14.611607l-13.466281,-5.349758l0.000014,0.000003z" fill-opacity="null" stroke-opacity="null" stroke-width="1.5" stroke="#000" fill="#000000"/>
 </g>
</svg>