<svg width="478" height="233" xmlns="http://www.w3.org/2000/svg">
 <!-- Created with Method Draw - http://github.com/duopixel/Method-Draw/ -->

 <g>
  <title>background</title>
  <rect fill="rgba(255,255,255,0)" id="canvas_background" height="235" width="480" y="-1" x="-1"/>
  <g display="none" overflow="visible" y="0" x="0" height="100%" width="100%" id="canvasGrid">
   <rect fill="url(#gridpattern)" stroke-width="0" y="0" x="0" height="100%" width="100%"/>
  </g>
 </g>
 <g>
  <title>Layer 1</title>
  <g stroke="null" transform="rotate(-30.779245376586914 165.85058593750003,86.93102264404295) " id="svg_4">
   <rect id="svg_2" height="27.260269" width="451.981736" y="73.300885" x="-60.140269" stroke-width="1.5" fill="#bf4080"/>
   <text stroke="#000" transform="matrix(0.7901778597997311,0,0,0.8260687544589197,125.96856260230997,24.976988770403477) " font-weight="bold" xml:space="preserve" text-anchor="start" font-family="'Palatino Linotype', 'Book Antiqua', Palatino, serif" font-size="24" id="svg_1" y="81.498637" x="-168.027773" stroke-width="0" fill="#ffffff">Syntactically Awesome Style Sheets</text>
  </g>
  <g stroke="null" id="svg_9">
   <path stroke="null" id="svg_8" d="m114.785836,59.489669c-4.051347,0.018091 -7.560102,0.995002 -10.490094,2.442278c-1.067096,-2.152823 -2.170364,-4.034281 -2.351228,-5.445375c-0.217036,-1.646276 -0.452159,-2.623187 -0.19895,-4.577009s1.39265,-4.721737 1.374564,-4.920737c-0.018086,-0.199 -0.253209,-1.194002 -2.586351,-1.212093c-2.333142,-0.018091 -4.340729,0.452274 -4.575851,1.067366c-0.235123,0.615092 -0.687282,2.008095 -0.958578,3.455371c-0.415986,2.116641 -4.666283,9.678656 -7.07177,13.622482c-0.7958,-1.53773 -1.464996,-2.894551 -1.609687,-3.980008c-0.217036,-1.646276 -0.452159,-2.623187 -0.19895,-4.577009s1.39265,-4.721737 1.374564,-4.920737c-0.018086,-0.199 -0.253209,-1.194002 -2.586351,-1.212093c-2.333142,-0.018091 -4.340729,0.452274 -4.575851,1.067366c-0.235123,0.615092 -0.488332,2.062368 -0.958578,3.455371c-0.470246,1.393003 -6.131279,13.984301 -7.614361,17.258762c-0.759628,1.664367 -1.410737,3.003097 -1.880982,3.907644s-0.036173,0.054273 -0.072345,0.162819c-0.3979,0.777911 -0.633023,1.212093 -0.633023,1.212093l0,0.018091c-0.307468,0.57891 -0.651109,1.103548 -0.813887,1.103548c-0.108518,0 -0.343641,-1.519639 0.054259,-3.600098c0.850059,-4.378009 2.857646,-11.180205 2.83956,-11.415387c-0.018086,-0.126637 0.379814,-1.302548 -1.320305,-1.935731c-1.64586,-0.597001 -2.24271,0.398001 -2.387401,0.398001c-0.144691,0 -0.253209,0.361819 -0.253209,0.361819s1.826723,-7.670561 -3.508756,-7.670561c-3.327892,0 -7.958002,3.654371 -10.236885,6.965014c-1.428823,0.777911 -4.521592,2.460369 -7.777139,4.251372c-1.247959,0.687456 -2.532092,1.393003 -3.743878,2.062368c-0.090432,-0.090455 -0.162777,-0.180909 -0.253209,-0.271364c-6.47492,-6.910741 -18.43001,-11.795297 -17.923592,-21.075952c0.180864,-3.383007 1.356478,-12.265661 22.987775,-23.047865c17.724642,-8.828382 31.904355,-6.404195 34.346015,-1.013093c3.508756,7.688652 -7.578189,21.99859 -25.990113,24.060958c-7.017511,0.777911 -10.707131,-1.935731 -11.629535,-2.948824c-0.958578,-1.067366 -1.103269,-1.121639 -1.464996,-0.922638c-0.59685,0.325637 -0.217036,1.266366 0,1.827186c0.542591,1.429185 2.803387,3.961917 6.655784,5.228283c3.382151,1.103548 11.611449,1.71864 21.558952,-2.134732c11.177376,-4.305645 19.87692,-16.299942 17.326742,-26.340417c-2.604437,-10.203293 -19.515192,-13.550118 -35.521629,-7.869561c-9.531517,3.383007 -19.840747,8.701745 -27.256159,15.630577c-8.808062,8.249471 -10.218799,15.431577 -9.640035,18.434674c2.061846,10.655567 16.747978,17.60249 22.626048,22.740319c-0.289382,0.162819 -0.560677,0.307546 -0.813887,0.452274c-2.948078,1.465367 -14.143541,7.326833 -16.946928,13.513937c-3.165115,7.019287 0.524505,12.04857 2.948078,12.736026c7.560102,2.09855 15.301068,-1.682458 19.460933,-7.887652s3.653447,-14.309938 1.736291,-18.000491c-0.018086,-0.054273 -0.054259,-0.090455 -0.072345,-0.144728c0.759628,-0.452274 1.537341,-0.904547 2.315055,-1.356821c1.501169,-0.886456 2.966165,-1.700549 4.250297,-2.406096c-0.723455,1.953822 -1.247959,4.305645 -1.519255,7.706743c-0.325555,3.980008 1.320305,9.135928 3.454497,11.162114c0.940491,0.886456 2.079932,0.904547 2.785301,0.904547c2.495919,0 3.617274,-2.062368 4.865233,-4.522736c1.537341,-3.003097 2.893819,-6.49465 2.893819,-6.49465s-1.700119,9.443474 2.948078,9.443474c1.700119,0 3.400237,-2.189004 4.159865,-3.310643l0,0.018091s0.036173,-0.072364 0.126605,-0.217091c0.180864,-0.271364 0.271296,-0.434183 0.271296,-0.434183l0,-0.054273c0.687282,-1.175911 2.188451,-3.871462 4.449247,-8.321835c2.929992,-5.752921 5.733379,-12.935026 5.733379,-12.935026s0.253209,1.754822 1.121355,4.667464c0.506418,1.71864 1.573514,3.600098 2.423573,5.427284c-0.687282,0.940729 -1.103269,1.483458 -1.103269,1.483458s0,0.018091 0.018086,0.036182c-0.542591,0.723638 -1.157528,1.501549 -1.790551,2.261368c-2.315055,2.749824 -5.064183,5.897648 -5.425911,6.802196c-0.434073,1.067366 -0.325555,1.863367 0.506418,2.47846c0.614937,0.470365 1.700119,0.542728 2.83956,0.452274c2.079932,-0.144728 3.544928,-0.651274 4.250297,-0.976911c1.121355,-0.398001 2.423573,-1.031184 3.653447,-1.91764c2.260796,-1.664367 3.63536,-4.052372 3.508756,-7.200196c-0.072345,-1.736731 -0.633023,-3.473462 -1.320305,-5.101647c0.19895,-0.289455 0.415986,-0.597001 0.614937,-0.904547c3.581101,-5.228283 6.348316,-10.963113 6.348316,-10.963113s0.253209,1.754822 1.121355,4.667464c0.434073,1.465367 1.284132,3.075461 2.061846,4.649373c-3.364065,2.731733 -5.443997,5.897648 -6.167452,7.978107c-1.338391,3.853371 -0.289382,5.590102 1.682032,5.988103c0.886232,0.180909 2.152278,-0.235182 3.092769,-0.633183c1.175614,-0.398001 2.586351,-1.031184 3.906656,-2.008095c2.260796,-1.664367 4.449247,-3.998099 4.304556,-7.164015c-0.054259,-1.429185 -0.452159,-2.858369 -0.976664,-4.233281c2.83956,-1.194002 6.529179,-1.845276 11.231635,-1.302548c10.074108,1.175911 12.045522,7.471561 11.665708,10.094748c-0.379814,2.641278 -2.495919,4.088554 -3.201287,4.522736c-0.705368,0.434183 -0.922405,0.597001 -0.868146,0.922638c0.090432,0.470365 0.415986,0.452274 1.012837,0.343728c0.831973,-0.144728 5.28122,-2.134732 5.48017,-7.001196c0.289382,-6.150922 -5.624861,-12.916935 -16.096869,-12.862663zm-77.644783,26.177599c-3.327892,3.63628 -7.994175,5.011192 -10.001762,3.853371c-2.152278,-1.248275 -1.302219,-6.603195 2.803387,-10.474658c2.495919,-2.351823 5.715293,-4.522736 7.849484,-5.861466c0.488332,-0.289455 1.1937,-0.723638 2.061846,-1.248275c0.144691,-0.090455 0.217036,-0.126637 0.217036,-0.126637c0.162777,-0.108546 0.343641,-0.199 0.524505,-0.307546c1.501169,5.499648 0.054259,10.348021 -3.454497,14.165211zm24.30808,-16.535125c-1.157528,2.840279 -3.599187,10.076657 -5.08227,9.696747c-1.266046,-0.325637 -2.04376,-5.843376 -0.253209,-11.270659c0.904318,-2.731733 2.821474,-5.988103 3.960915,-7.254469c1.826723,-2.044277 3.83431,-2.695551 4.304556,-1.881458c0.633023,1.067366 -2.206537,8.936927 -2.929992,10.70984zm20.07587,9.588201c-0.488332,0.253273 -0.940491,0.416092 -1.157528,0.289455c-0.162777,-0.090455 0.19895,-0.434183 0.19895,-0.434183s2.514005,-2.695551 3.508756,-3.925735c0.578764,-0.723638 1.247959,-1.573912 1.971414,-2.514641c0,0.090455 0.018086,0.180909 0.018086,0.289455c-0.018086,3.238279 -3.128942,5.427284 -4.539679,6.295649zm15.481932,-3.527734c-0.361727,-0.253273 -0.307468,-1.103548 0.904318,-3.744826c0.470246,-1.031184 1.555428,-2.767915 3.43641,-4.432282c0.217036,0.687456 0.343641,1.33873 0.343641,1.953822c-0.018086,4.070463 -2.929992,5.590102 -4.68437,6.223285z" fill="#bf4080"/>
  </g>
 </g>
</svg>