<?xml version="1.0" encoding="utf-8"?>

<svg version="1.1" xmlns="http://www.w3.org/2000/svg" xmlns:xlink="http://www.w3.org/1999/xlink" x="0px" y="0px"
	 viewBox="0 0 1366 368" style="enable-background:new 0 0 1366 368;" xml:space="preserve">
<style type="text/css">
	.st0{fill:#FFFFFF;}
	.st1{fill:none;}
	.st2{fill:#00CC66;}
	.st3{font-family:'CourierNewPS-BoldMT';}
	.st4{font-size:36px;}
	.st5{fill:#0066FF;}
	.st6{fill:#FF9900;}
	.st7{fill:#0033FF;}
	.st8{font-family:'PTSans-Narrow';}
	.st9{font-size:27px;}
	.st10{fill:none;stroke:#0033FF;stroke-width:3;stroke-miterlimit:10;stroke-dasharray:8.5,8.5;}
	.st11{fill:none;stroke:#0033FF;stroke-width:3;stroke-miterlimit:10;}
	.st12{fill:#FFAF33;}
	.st13{font-family:'PTSans-NarrowBold';}
	.st14{font-size:31px;}
	.st15{fill:#FF0000;}
	.st16{font-size:40px;}
	.st17{letter-spacing:5;}
</style>
<g id="wit_achter">
	<rect class="st0" width="1366" height="368"/>
</g>
<g id="Laag_1">
	<rect x="57" y="185" class="st1" width="1249" height="51"/>
	<text transform="matrix(1 0 0 1 109.0068 207.7881)"><tspan x="0" y="0" class="st2 st3 st4">&lt;a</tspan><tspan x="43.21" y="0" class="st3 st4"> </tspan><tspan x="64.81" y="0" class="st5 st3 st4">href=&quot;</tspan><tspan x="194.43" y="0" class="st6 st3 st4">https://www.lamlisse.nl/</tspan><tspan x="712.92" y="0" class="st5 st3 st4">&quot;</tspan><tspan x="734.52" y="0" class="st2 st3 st4">&gt;</tspan><tspan x="756.12" y="0" class="st3 st4">Bezoek het LAM</tspan><tspan x="1058.57" y="0" class="st2 st3 st4">&lt;/a&gt;</tspan></text>
	<text transform="matrix(1 0 0 1 186.2622 130.6025)"><tspan x="0" y="0" class="st7 st8 st9">Attribuut-</tspan><tspan x="20.14" y="32.4" class="st7 st8 st9">naam</tspan></text>
	<g>
		<line class="st10" x1="170.5" y1="174" x2="170.5" y2="132.75"/>
		<polyline class="st11" points="170.5,128.5 170.5,122.5 176.5,122.5 		"/>
		<polyline class="st11" points="289,122.5 295,122.5 295,128.5 		"/>
		<line class="st10" x1="295" y1="137" x2="295" y2="174"/>
	</g>
	<text transform="matrix(1 0 0 1 456.1072 129.9127)" class="st12 st8 st9">Attribuut- waarde</text>
	<g>
		<rect x="312" y="136.7" class="st12" width="3" height="8.5"/>
	</g>
	<g>
		<polygon class="st12" points="315,128.2 312,128.2 312,120.7 319.5,120.7 319.5,123.7 315,123.7 		"/>
	</g>
	<path class="st12" d="M799.5,123.7h-12v-3h12V123.7z M775.5,123.7h-12v-3h12V123.7z M751.5,123.7h-12v-3h12V123.7z M727.5,123.7
		h-12v-3h12V123.7z M703.5,123.7h-12v-3h12V123.7z M679.5,123.7h-12v-3h12V123.7z M655.5,123.7h-12v-3h12V123.7z M439.5,123.7h-12
		v-3h12V123.7z M415.5,123.7h-12v-3h12V123.7z M391.5,123.7h-12v-3h12V123.7z M367.5,123.7h-12v-3h12V123.7z M343.5,123.7h-12v-3h12
		V123.7z"/>
	<g>
		<polygon class="st12" points="819,128.2 816,128.2 816,123.7 811.5,123.7 811.5,120.7 819,120.7 		"/>
	</g>
	<g>
		<rect x="816" y="136.7" class="st12" width="3" height="8.5"/>
	</g>
	<g>
		<path class="st7" d="M424.12,39.12h-5.11l-1.27,7.26h-3.88l6.29-31.97h3.07l6.32,31.97h-4.09L424.12,39.12z M419.85,34.49h3.6
			l-1.24-7.39l-0.5-4.99h-0.12l-0.53,5.03L419.85,34.49z"/>
		<path class="st7" d="M428.87,23.7h1.71v-4.26l3.69-1.68v5.94h3.01v4.81h-3.01v9.89c0,1.3,0.09,2.22,0.26,2.77
			c0.18,0.54,0.49,0.82,0.95,0.82c0.31,0,0.59-0.05,0.84-0.14s0.52-0.23,0.81-0.41l0.46,4.31c-0.45,0.33-0.98,0.61-1.58,0.84
			c-0.6,0.23-1.23,0.34-1.89,0.34c-1.18,0-2.06-0.5-2.65-1.5c-0.59-1-0.88-2.68-0.88-5.03V28.5h-1.71V23.7z"/>
		<path class="st7" d="M437.7,23.7h1.71v-4.26l3.69-1.68v5.94h3.01v4.81h-3.01v9.89c0,1.3,0.09,2.22,0.26,2.77
			c0.18,0.54,0.49,0.82,0.95,0.82c0.31,0,0.59-0.05,0.84-0.14s0.52-0.23,0.81-0.41l0.46,4.31c-0.45,0.33-0.98,0.61-1.58,0.84
			c-0.6,0.23-1.23,0.34-1.89,0.34c-1.18,0-2.06-0.5-2.65-1.5c-0.59-1-0.88-2.68-0.88-5.03V28.5h-1.71V23.7z"/>
		<path class="st7" d="M455.25,29.05c-0.5-0.27-0.95-0.41-1.36-0.41c-0.56,0-1.04,0.23-1.44,0.68c-0.4,0.45-0.68,1.09-0.82,1.9
			v15.15h-3.69V23.7h2.82l0.43,2.72h0.12c0.27-1,0.66-1.78,1.16-2.34c0.51-0.56,1.09-0.84,1.75-0.84c0.5,0,0.98,0.15,1.46,0.45
			L455.25,29.05z"/>
		<path class="st7" d="M456.92,17.3c0-0.91,0.2-1.66,0.59-2.25c0.39-0.59,0.95-0.88,1.67-0.88c0.72,0,1.3,0.29,1.74,0.86
			c0.43,0.57,0.65,1.33,0.65,2.27c0,0.94-0.22,1.68-0.65,2.22c-0.43,0.54-1.01,0.82-1.74,0.82c-0.72,0-1.28-0.28-1.67-0.84
			C457.12,18.94,456.92,18.21,456.92,17.3z M457.33,23.7h3.69v22.68h-3.69V23.7z"/>
		<path class="st7" d="M463.99,14.63h3.69v10.52h0.09c0.74-1.33,1.81-2,3.19-2c1.47,0,2.61,0.89,3.43,2.68
			c0.82,1.78,1.22,4.66,1.22,8.62c0,4.29-0.58,7.45-1.74,9.46c-1.16,2.01-2.74,3.02-4.74,3.02c-1.1,0-2.1-0.15-3.02-0.45
			c-0.92-0.3-1.63-0.64-2.12-1V14.63z M467.68,41.47c0.43,0.33,1,0.5,1.71,0.5c0.79,0,1.38-0.55,1.8-1.66
			c0.41-1.1,0.62-2.95,0.62-5.56c0-2.3-0.17-3.98-0.5-5.06c-0.33-1.07-0.85-1.61-1.55-1.61c-1.03,0-1.73,0.79-2.08,2.36V41.47z"/>
		<path class="st7" d="M481.29,23.7v13.56c0,1.78,0.11,3.02,0.34,3.72c0.23,0.7,0.64,1.04,1.24,1.04c0.58,0,1.06-0.31,1.46-0.93
			c0.39-0.62,0.67-1.37,0.84-2.24V23.7h3.69v15.78c0,1.24,0.03,2.46,0.09,3.65c0.06,1.19,0.18,2.28,0.34,3.24h-2.79l-0.65-3.08
			h-0.09c-0.39,1.06-0.92,1.94-1.6,2.63c-0.67,0.7-1.5,1.04-2.5,1.04c-0.64,0-1.21-0.13-1.71-0.39s-0.92-0.7-1.27-1.34
			c-0.35-0.63-0.62-1.5-0.81-2.61c-0.19-1.1-0.28-2.5-0.28-4.19V23.7H481.29z"/>
		<path class="st7" d="M495.11,23.7v13.56c0,1.78,0.11,3.02,0.34,3.72c0.23,0.7,0.64,1.04,1.24,1.04c0.58,0,1.06-0.31,1.46-0.93
			c0.39-0.62,0.67-1.37,0.84-2.24V23.7h3.69v15.78c0,1.24,0.03,2.46,0.09,3.65c0.06,1.19,0.18,2.28,0.34,3.24h-2.79l-0.65-3.08
			h-0.09c-0.39,1.06-0.92,1.94-1.6,2.63c-0.67,0.7-1.5,1.04-2.5,1.04c-0.64,0-1.21-0.13-1.71-0.39s-0.92-0.7-1.27-1.34
			c-0.35-0.63-0.62-1.5-0.81-2.61c-0.19-1.1-0.28-2.5-0.28-4.19V23.7H495.11z"/>
		<path class="st7" d="M504.17,23.7h1.71v-4.26l3.69-1.68v5.94h3.01v4.81h-3.01v9.89c0,1.3,0.09,2.22,0.26,2.77
			c0.18,0.54,0.49,0.82,0.95,0.82c0.31,0,0.59-0.05,0.84-0.14s0.52-0.23,0.81-0.41l0.46,4.31c-0.45,0.33-0.98,0.61-1.58,0.84
			c-0.6,0.23-1.23,0.34-1.89,0.34c-1.18,0-2.06-0.5-2.65-1.5c-0.59-1-0.88-2.68-0.88-5.03V28.5h-1.71V23.7z"/>
	</g>
	<g>
		<g>
			<path class="st7" d="M169,95.45h-4v-13.3h4V95.45z M169,68.85h-4v-13.3h4V68.85z"/>
		</g>
		<g>
			<polygon class="st7" points="169,42.25 165,42.25 165,34 173.25,34 173.25,38 169,38 			"/>
		</g>
		<g>
			<path class="st7" d="M824.23,38h-12.52v-4h12.52V38z M799.19,38h-12.52v-4h12.52V38z M774.16,38h-12.52v-4h12.52V38z M749.12,38
				H736.6v-4h12.52V38z M724.08,38h-12.52v-4h12.52V38z M699.04,38h-12.52v-4h12.52V38z M674,38h-12.52v-4H674V38z M648.97,38
				h-12.52v-4h12.52V38z M623.93,38h-12.52v-4h12.52V38z M598.89,38h-12.52v-4h12.52V38z M573.85,38h-12.52v-4h12.52V38z M548.82,38
				H536.3v-4h12.52V38z M398.59,38h-12.52v-4h12.52V38z M373.55,38h-12.52v-4h12.52V38z M348.51,38H336v-4h12.52V38z M323.48,38
				h-12.52v-4h12.52V38z M298.44,38h-12.52v-4h12.52V38z M273.4,38h-12.52v-4h12.52V38z M248.36,38h-12.52v-4h12.52V38z M223.33,38
				h-12.52v-4h12.52V38z M198.29,38h-12.52v-4h12.52V38z"/>
		</g>
		<g>
			<polygon class="st7" points="845,42.25 841,42.25 841,38 836.75,38 836.75,34 845,34 			"/>
		</g>
		<g>
			<path class="st7" d="M845,95.45h-4v-13.3h4V95.45z M845,68.85h-4v-13.3h4V68.85z"/>
		</g>
	</g>
	<text transform="matrix(1 0 0 1 1179.6943 256.082)"><tspan x="0" y="0" class="st2 st13 st14">Sluit-</tspan><tspan x="12.32" y="37.2" class="st2 st13 st14">tag</tspan></text>
	<text transform="matrix(1 0 0 1 397.4297 284.2885)" class="st2 st13 st14">Openings-tag</text>
	<g>
		<g>
			<polygon class="st2" points="866,277 857.75,277 857.75,273 862,273 862,268.75 866,268.75 			"/>
		</g>
		<g>
			<path class="st2" d="M845.13,277h-12.62v-4h12.62V277z M819.89,277h-12.62v-4h12.62V277z M794.66,277h-12.62v-4h12.62V277z
				 M769.42,277H756.8v-4h12.62V277z M744.18,277h-12.62v-4h12.62V277z M718.94,277h-12.62v-4h12.62V277z M693.71,277h-12.62v-4
				h12.62V277z M668.47,277h-12.62v-4h12.62V277z M643.23,277h-12.62v-4h12.62V277z M618,277h-12.62v-4H618V277z M592.76,277h-12.62
				v-4h12.62V277z M567.52,277H554.9v-4h12.62V277z M390.86,277h-12.62v-4h12.62V277z M365.62,277H353v-4h12.62V277z M340.38,277
				h-12.62v-4h12.62V277z M315.15,277h-12.62v-4h12.62V277z M289.91,277h-12.62v-4h12.62V277z M264.67,277h-12.62v-4h12.62V277z
				 M239.44,277h-12.62v-4h12.62V277z M214.2,277h-12.62v-4h12.62V277z M188.96,277h-12.62v-4h12.62V277z M163.72,277H151.1v-4
				h12.62V277z M138.49,277h-12.62v-4h12.62V277z"/>
		</g>
		<g>
			<polygon class="st2" points="113.25,277 105,277 105,268.75 109,268.75 109,273 113.25,273 			"/>
		</g>
		<g>
			<rect x="105" y="237.75" class="st2" width="4" height="15.5"/>
		</g>
		<g>
			<rect x="862" y="237.75" class="st2" width="4" height="15.5"/>
		</g>
	</g>
	<text transform="matrix(1 0 0 1 620.9951 354.8889)" class="st15 st13 st16 st17">Element</text>
	<g>
		<path class="st15" d="M1238.74,348h-12.51v-5h12.51V348z M1213.72,348h-12.51v-5h12.51V348z M1188.7,348h-12.51v-5h12.51V348z
			 M1163.67,348h-12.51v-5h12.51V348z M1138.65,348h-12.51v-5h12.51V348z M1113.63,348h-12.51v-5h12.51V348z M1088.61,348h-12.51v-5
			h12.51V348z M1063.58,348h-12.51v-5h12.51V348z M1038.56,348h-12.51v-5h12.51V348z M1013.54,348h-12.51v-5h12.51V348z M988.52,348
			h-12.51v-5h12.51V348z M963.5,348h-12.51v-5h12.51V348z M938.48,348h-12.51v-5h12.51V348z M913.45,348h-12.51v-5h12.51V348z
			 M888.43,348h-12.51v-5h12.51V348z M863.41,348H850.9v-5h12.51V348z M838.39,348h-12.51v-5h12.51V348z M813.37,348h-12.51v-5
			h12.51V348z M788.34,348h-12.51v-5h12.51V348z M613.19,348h-12.51v-5h12.51V348z M588.17,348h-12.51v-5h12.51V348z M563.15,348
			h-12.51v-5h12.51V348z M538.12,348h-12.51v-5h12.51V348z M513.1,348h-12.51v-5h12.51V348z M488.08,348h-12.51v-5h12.51V348z
			 M463.06,348h-12.51v-5h12.51V348z M438.04,348h-12.51v-5h12.51V348z M413.01,348H400.5v-5h12.51V348z M387.99,348h-12.51v-5
			h12.51V348z M362.97,348h-12.51v-5h12.51V348z M337.95,348h-12.51v-5h12.51V348z M312.93,348h-12.51v-5h12.51V348z M287.9,348
			h-12.51v-5h12.51V348z M262.88,348h-12.51v-5h12.51V348z M237.86,348h-12.51v-5h12.51V348z M212.84,348h-12.51v-5h12.51V348z
			 M187.82,348H175.3v-5h12.51V348z M162.79,348h-12.51v-5h12.51V348z M137.77,348h-12.51v-5h12.51V348z"/>
	</g>
	<g>
		<g>
			<polygon class="st15" points="1260,348 1251.25,348 1251.25,343 1255,343 1255,339.25 1260,339.25 			"/>
		</g>
		<g>
			<polygon class="st15" points="112.75,348 104,348 104,339.25 109,339.25 109,343 112.75,343 			"/>
		</g>
		<g>
			<path class="st15" d="M109,333.95h-5v-11.3h5V333.95z M109,311.35h-5v-11.3h5V311.35z"/>
		</g>
		<g>
			<path class="st15" d="M1260,334.95h-5v-11.3h5V334.95z M1260,312.35h-5v-11.3h5V312.35z"/>
		</g>
	</g>
</g>
</svg>
