<?xml version="1.0" encoding="utf-8"?>
<svg version="1.1" xmlns="http://www.w3.org/2000/svg" xmlns:xlink="http://www.w3.org/1999/xlink" x="0px" y="0px"
	 viewBox="0 0 688.62 943.26" style="enable-background:new 0 0 688.62 943.26;" xml:space="preserve">
<style type="text/css">
	.st0{fill:#FFFFFF;}
	.st1{fill:#CDCCCC;stroke:#000000;stroke-miterlimit:10;}
	.st2{fill:#E5E35E;stroke:#000000;stroke-miterlimit:10;}
	.st3{fill:#8090C8;stroke:#000000;stroke-miterlimit:10;}
	.st4{fill:none;}
	.st5{font-family:'Baskerville-SemiBold';}
	.st6{font-size:29px;}
	.st7{font-family:'MyriadPro-Regular';}
	.st8{font-size:31.5516px;}
	.st9{font-size:17.2099px;}
	.st10{fill:none;stroke:#E67373;stroke-width:2;stroke-miterlimit:10;}
	.st11{fill:#E67373;}
	.st12{fill:#8090C8;}
	.st13{fill:none;stroke:#000000;stroke-miterlimit:10;}
	.st14{fill:none;stroke:#000000;stroke-miterlimit:10;stroke-dasharray:12.0935,12.0935;}
</style>
<g id="achtergrond">
	<rect class="st0" width="688.62" height="943.26"/>
</g>
<g id="grijs_achter">
	<rect x="49.56" y="29.69" class="st1" width="608.87" height="886.89"/>
</g>
<g id="vormen">
	<rect x="110.67" y="133.81" class="st2" width="487.77" height="271.7"/>
	<rect x="190.04" y="186.09" class="st3" width="331.91" height="166.46"/>
	<rect x="190.04" y="186.09" class="st4" width="331.91" height="83.57"/>
	<text transform="matrix(1.049 0 0 1 190.0414 205.629)"><tspan x="0" y="0" class="st0 st5 st6">Inhoud van dit element </tspan><tspan x="0" y="34.8" class="st0 st5 st6">(child)</tspan></text>
	<rect x="110.67" y="58.48" class="st4" width="331.91" height="37.86"/>
	<text transform="matrix(1.049 0 0 1 110.6706 80.885)" class="st7 st8">parent-element</text>
</g>
<g id="teksten">
	<text transform="matrix(1.049 0 0 1 118.6073 269.317)" class="st7 st9">padding</text>
	<text transform="matrix(1.049 0 0 1 56.3273 316.0602)" class="st7 st9">marge</text>
	<rect x="356.71" y="454.17" class="st4" width="17.27" height="0"/>
	<g>
		<line x1="48.65" y1="328.27" x2="108.63" y2="328.27"/>
		<g>
			<line class="st10" x1="62.77" y1="328.27" x2="94.51" y2="328.27"/>
			<g>
				<polygon class="st11" points="48.65,328.27 68.55,336.4 63.83,328.27 68.55,320.14 				"/>
			</g>
			<g>
				<polygon class="st11" points="108.63,328.27 88.74,336.4 93.46,328.27 88.74,320.14 				"/>
			</g>
		</g>
	</g>
	<g>
		<line x1="110.67" y1="280.42" x2="190.04" y2="280.42"/>
		<g>
			<line class="st10" x1="124.79" y1="280.42" x2="175.92" y2="280.42"/>
			<g>
				<polygon class="st11" points="110.67,280.42 130.57,288.55 125.85,280.42 130.57,272.29 				"/>
			</g>
			<g>
				<polygon class="st11" points="190.04,280.42 170.14,288.55 174.86,280.42 170.14,272.29 				"/>
			</g>
		</g>
	</g>
	<text transform="matrix(1.0109 0 0 1 529.6039 263.7662)" class="st7 st9">padding</text>
	<g>
		<line x1="521.96" y1="274.87" x2="598.44" y2="274.87"/>
		<g>
			<line class="st10" x1="536.08" y1="274.87" x2="584.32" y2="274.87"/>
			<g>
				<polygon class="st11" points="521.96,274.87 541.85,283 537.13,274.87 541.85,266.74 				"/>
			</g>
			<g>
				<polygon class="st11" points="598.44,274.87 578.54,283 583.26,274.87 578.54,266.74 				"/>
			</g>
		</g>
	</g>
	<text transform="matrix(1.049 0 0 1 606.1187 357.096)" class="st7 st9">marge</text>
	<g>
		<line x1="598.44" y1="369.3" x2="658.43" y2="369.3"/>
		<g>
			<line class="st10" x1="612.56" y1="369.3" x2="644.3" y2="369.3"/>
			<g>
				<polygon class="st11" points="598.44,369.3 618.34,377.43 613.62,369.3 618.34,361.17 				"/>
			</g>
			<g>
				<polygon class="st11" points="658.43,369.3 638.53,377.43 643.25,369.3 638.53,361.17 				"/>
			</g>
		</g>
	</g>
	<g>
		<line x1="373.98" y1="349.71" x2="373.98" y2="405.51"/>
		<g>
			<line class="st10" x1="373.98" y1="363.83" x2="373.98" y2="391.39"/>
			<g>
				<polygon class="st11" points="373.98,349.71 365.85,369.61 373.98,364.89 382.11,369.61 				"/>
			</g>
			<g>
				<polygon class="st11" points="373.98,405.51 365.85,385.61 373.98,390.33 382.11,385.61 				"/>
			</g>
		</g>
	</g>
	<g>
		<line x1="390.53" y1="133.34" x2="390.53" y2="184.61"/>
		<g>
			<line class="st10" x1="390.53" y1="147.46" x2="390.53" y2="170.49"/>
			<g>
				<polygon class="st11" points="390.53,133.34 382.4,153.24 390.53,148.52 398.66,153.24 				"/>
			</g>
			<g>
				<polygon class="st11" points="390.53,184.61 382.4,164.71 390.53,169.43 398.66,164.71 				"/>
			</g>
		</g>
	</g>
	<text transform="matrix(1.049 0 0 1 390.5266 377.6122)" class="st7 st9">padding</text>
	<text transform="matrix(1.049 0 0 1 320.356 163.8947)" class="st7 st9">padding</text>
	<rect x="111.58" y="498.5" class="st2" width="487.77" height="271.7"/>
	<rect x="190.95" y="546.78" class="st3" width="331.91" height="166.46"/>
	<rect x="190.95" y="548.78" class="st4" width="331.91" height="110.74"/>
	<text transform="matrix(1.049 0 0 1 190.9523 568.3199)"><tspan x="0" y="0" class="st0 st5 st6">Inhoud van dit element </tspan><tspan x="0" y="34.8" class="st0 st5 st6">(tweede child)</tspan></text>
	<text transform="matrix(1.049 0 0 1 119.5178 631.0074)" class="st7 st9">padding</text>
	<text transform="matrix(1.049 0 0 1 57.2377 677.7505)" class="st7 st9">marge</text>
	<rect x="357.62" y="815.86" class="st4" width="17.27" height="0"/>
	<g>
		<line x1="49.56" y1="689.96" x2="109.54" y2="689.96"/>
		<g>
			<line class="st10" x1="63.68" y1="689.96" x2="95.42" y2="689.96"/>
			<g>
				<polygon class="st11" points="49.56,689.96 69.46,698.09 64.74,689.96 69.46,681.83 				"/>
			</g>
			<g>
				<polygon class="st11" points="109.54,689.96 89.65,698.09 94.37,689.96 89.65,681.83 				"/>
			</g>
		</g>
	</g>
	<g>
		<line x1="111.58" y1="642.11" x2="190.95" y2="642.11"/>
		<g>
			<line class="st10" x1="125.7" y1="642.11" x2="176.83" y2="642.11"/>
			<g>
				<polygon class="st11" points="111.58,642.11 131.48,650.24 126.76,642.11 131.48,633.98 				"/>
			</g>
			<g>
				<polygon class="st11" points="190.95,642.11 171.05,650.24 175.77,642.11 171.05,633.98 				"/>
			</g>
		</g>
	</g>
	<text transform="matrix(1.0109 0 0 1 530.5143 625.4566)" class="st7 st9">padding</text>
	<g>
		<line x1="522.87" y1="636.56" x2="599.35" y2="636.56"/>
		<g>
			<line class="st10" x1="536.99" y1="636.56" x2="585.23" y2="636.56"/>
			<g>
				<polygon class="st11" points="522.87,636.56 542.76,644.69 538.04,636.56 542.76,628.43 				"/>
			</g>
			<g>
				<polygon class="st11" points="599.35,636.56 579.45,644.69 584.17,636.56 579.45,628.43 				"/>
			</g>
		</g>
	</g>
	<text transform="matrix(1.049 0 0 1 607.0291 718.7863)" class="st7 st9">marge</text>
	<g>
		<line x1="599.35" y1="730.99" x2="659.34" y2="730.99"/>
		<g>
			<line class="st10" x1="613.47" y1="730.99" x2="645.22" y2="730.99"/>
			<g>
				<polygon class="st11" points="599.35,730.99 619.25,739.12 614.53,730.99 619.25,722.87 				"/>
			</g>
			<g>
				<polygon class="st11" points="659.34,730.99 639.44,739.12 644.16,730.99 639.44,722.87 				"/>
			</g>
		</g>
	</g>
	<g>
		<line x1="374.89" y1="711.4" x2="374.89" y2="767.2"/>
		<g>
			<line class="st10" x1="374.89" y1="725.52" x2="374.89" y2="753.08"/>
			<g>
				<polygon class="st11" points="374.89,711.4 366.76,731.3 374.89,726.58 383.02,731.3 				"/>
			</g>
			<g>
				<polygon class="st11" points="374.89,767.2 366.76,747.3 374.89,752.03 383.02,747.3 				"/>
			</g>
		</g>
	</g>
	<g>
		<line x1="391.44" y1="495.03" x2="391.44" y2="546.3"/>
		<g>
			<line class="st10" x1="391.44" y1="509.15" x2="391.44" y2="532.18"/>
			<g>
				<polygon class="st11" points="391.44,495.03 383.31,514.93 391.44,510.21 399.57,514.93 				"/>
			</g>
			<g>
				<polygon class="st11" points="391.44,546.3 383.31,526.4 391.44,531.12 399.57,526.4 				"/>
			</g>
		</g>
	</g>
	<text transform="matrix(1.049 0 0 1 391.437 739.3026)" class="st7 st9">padding</text>
	<text transform="matrix(1.049 0 0 1 321.2665 525.5851)" class="st7 st9">padding</text>
	<g>
		<line x1="486.21" y1="29.69" x2="486.21" y2="133.34"/>
		<g>
			<line class="st10" x1="486.21" y1="43.81" x2="486.21" y2="119.22"/>
			<g>
				<polygon class="st11" points="486.21,29.69 478.08,49.58 486.21,44.86 494.34,49.58 				"/>
			</g>
			<g>
				<polygon class="st11" points="486.21,133.34 478.08,113.44 486.21,118.16 494.34,113.44 				"/>
			</g>
		</g>
	</g>
	<g>
		<line x1="194.12" y1="405.98" x2="194.12" y2="450.63"/>
		<g>
			<line class="st10" x1="194.12" y1="420.1" x2="194.12" y2="436.51"/>
			<g>
				<polygon class="st11" points="194.12,405.98 185.99,425.88 194.12,421.16 202.25,425.88 				"/>
			</g>
			<g>
				<polygon class="st11" points="194.12,450.63 185.99,430.73 194.12,435.45 202.25,430.73 				"/>
			</g>
		</g>
	</g>
	<g>
		<line x1="280.45" y1="767.2" x2="280.45" y2="916.57"/>
		<g>
			<line class="st10" x1="280.45" y1="781.32" x2="280.45" y2="902.45"/>
			<g>
				<polygon class="st11" points="280.45,767.2 272.32,787.1 280.45,782.38 288.58,787.1 				"/>
			</g>
			<g>
				<polygon class="st11" points="280.45,916.57 272.32,896.68 280.45,901.4 288.58,896.68 				"/>
			</g>
		</g>
	</g>
	<text transform="matrix(1.049 0 0 1 288.2981 841.8884)" class="st7 st9">marge</text>
	<text transform="matrix(1.049 0 0 1 209.8808 431.5207)" class="st7 st9">marge</text>
	<text transform="matrix(1.049 0 0 1 496.2118 81.5124)" class="st7 st9">marge</text>
	<g>
		<line x1="193.49" y1="453.01" x2="193.49" y2="497.65"/>
		<g>
			<line class="st10" x1="193.49" y1="467.13" x2="193.49" y2="483.53"/>
			<g>
				<polygon class="st11" points="193.49,453.01 185.36,472.9 193.49,468.18 201.62,472.9 				"/>
			</g>
			<g>
				<polygon class="st11" points="193.49,497.65 185.36,477.75 193.49,482.48 201.62,477.75 				"/>
			</g>
		</g>
	</g>
	<text transform="matrix(1.049 0 0 1 209.2494 478.5432)" class="st7 st9">marge</text>
	<g>
		<line class="st12" x1="17.83" y1="454.17" x2="670.79" y2="453.01"/>
		<g>
			<line class="st13" x1="17.83" y1="454.17" x2="23.83" y2="454.16"/>
			<line class="st14" x1="35.93" y1="454.13" x2="658.74" y2="453.03"/>
			<line class="st13" x1="664.79" y1="453.02" x2="670.79" y2="453.01"/>
		</g>
	</g>
	<g id="Laag_4">
		<g id="Laag_5">
		</g>
	</g>
</g>
</svg>
