<?xml version="1.0" encoding="utf-8"?>
<!-- Generator: Adobe Illustrator 24.2.1, SVG Export Plug-In . SVG Version: 6.00 Build 0)  -->
<svg version="1.1" xmlns="http://www.w3.org/2000/svg" xmlns:xlink="http://www.w3.org/1999/xlink" x="0px" y="0px"
	 viewBox="0 0 1239.01 644.42" style="enable-background:new 0 0 1239.01 644.42;" xml:space="preserve">
<style type="text/css">
	.st0{fill:#FFFFFF;}
	.st1{fill:none;stroke:#000000;stroke-width:0.75;stroke-miterlimit:10;}
	.st2{fill:none;stroke:#000000;stroke-width:0.75;stroke-miterlimit:10;stroke-dasharray:11.9127,11.9127;}
	.st3{fill:none;stroke:#000000;stroke-width:0.75;stroke-miterlimit:10;stroke-dasharray:11.9902,11.9902;}
	.st4{fill:#CDCCCC;}
	.st5{fill:#E5E35E;stroke:#000000;stroke-miterlimit:10;}
	.st6{fill:#8090C8;stroke:#000000;stroke-miterlimit:10;}
	.st7{fill:none;}
	.st8{font-family:'Baskerville-SemiBold';}
	.st9{font-size:29px;}
	.st10{font-family:'MyriadPro-Regular';}
	.st11{font-size:31.5516px;}
	.st12{font-size:17.2099px;}
	.st13{fill:none;stroke:#E67373;stroke-width:2;stroke-miterlimit:10;}
	.st14{fill:#E67373;}
	.st15{fill:none;stroke:#000000;stroke-width:0.75;stroke-miterlimit:10;stroke-dasharray:12.1909,12.1909;}
</style>
<g id="achtergrond">
	<g>
		<rect y="0" class="st0" width="1239.01" height="647.48"/>
		<g>
			<polyline class="st1" points="1239.01,641.48 1239.01,647.48 1233.01,647.48 			"/>
			<line class="st2" x1="1221.09" y1="647.48" x2="11.96" y2="647.48"/>
			<polyline class="st1" points="6,647.48 0,647.48 0,641.48 			"/>
			<line class="st3" x1="0" y1="629.49" x2="0" y2="11.99"/>
			<polyline class="st1" points="0,6 0,0 6,0 			"/>
			<line class="st2" x1="17.91" y1="0" x2="1227.05" y2="0"/>
			<polyline class="st1" points="1233.01,0 1239.01,0 1239.01,6 			"/>
			<line class="st3" x1="1239.01" y1="17.99" x2="1239.01" y2="635.49"/>
		</g>
	</g>
	<path class="st0" d="M629.65,70.53"/>
</g>
<g id="parent">
	<rect x="26.93" y="70.53" class="st4" width="1202.3" height="528.8"/>
</g>
<g id="vormen">
	<rect x="86.95" y="174.66" class="st5" width="487.77" height="271.7"/>
	<rect x="166.32" y="226.93" class="st6" width="331.91" height="166.46"/>
	<rect x="166.32" y="226.93" class="st7" width="331.91" height="83.57"/>
	<text transform="matrix(1.049 0 0 1 166.3206 246.4759)"><tspan x="0" y="0" class="st0 st8 st9">Inhoud van dit element </tspan><tspan x="0" y="34.8" class="st0 st8 st9">(child)</tspan></text>
	<rect x="86.95" y="99.33" class="st7" width="331.91" height="37.86"/>
	<text transform="matrix(1.049 0 0 1 86.9498 121.7319)" class="st10 st11">parent-element</text>
</g>
<g id="teksten">
	<text transform="matrix(1.049 0 0 1 94.8866 310.1639)" class="st10 st12">padding</text>
	<text transform="matrix(1.049 0 0 1 32.6065 356.9071)" class="st10 st12">marge</text>
	<rect x="921.75" y="178.32" class="st7" width="17.27" height="0"/>
	<g>
		<line x1="24.93" y1="369.11" x2="84.91" y2="369.11"/>
		<g>
			<line class="st13" x1="39.05" y1="369.11" x2="70.79" y2="369.11"/>
			<g>
				<polygon class="st14" points="24.93,369.11 44.83,377.25 40.1,369.11 44.83,360.99 				"/>
			</g>
			<g>
				<polygon class="st14" points="84.91,369.11 65.02,377.25 69.74,369.11 65.02,360.99 				"/>
			</g>
		</g>
	</g>
	<g>
		<line x1="86.95" y1="321.27" x2="166.32" y2="321.27"/>
		<g>
			<line class="st13" x1="101.07" y1="321.27" x2="152.2" y2="321.27"/>
			<g>
				<polygon class="st14" points="86.95,321.27 106.85,329.4 102.13,321.27 106.85,313.14 				"/>
			</g>
			<g>
				<polygon class="st14" points="166.32,321.27 146.42,329.4 151.14,321.27 146.42,313.14 				"/>
			</g>
		</g>
	</g>
	<text transform="matrix(1.0109 0 0 1 505.8831 304.6131)" class="st10 st12">padding</text>
	<g>
		<line x1="498.23" y1="315.71" x2="574.72" y2="315.71"/>
		<g>
			<line class="st13" x1="512.36" y1="315.71" x2="560.6" y2="315.71"/>
			<g>
				<polygon class="st14" points="498.23,315.71 518.13,323.85 513.41,315.71 518.13,307.59 				"/>
			</g>
			<g>
				<polygon class="st14" points="574.72,315.71 554.82,323.85 559.54,315.71 554.82,307.59 				"/>
			</g>
		</g>
	</g>
	<text transform="matrix(1.049 0 0 1 582.3979 207.9429)" class="st10 st12">marge</text>
	<g>
		<line x1="574.72" y1="220.15" x2="634.71" y2="220.15"/>
		<g>
			<line class="st13" x1="588.84" y1="220.15" x2="620.58" y2="220.15"/>
			<g>
				<polygon class="st14" points="574.72,220.15 594.62,228.28 589.9,220.15 594.62,212.02 				"/>
			</g>
			<g>
				<polygon class="st14" points="634.71,220.15 614.81,228.28 619.53,220.15 614.81,212.02 				"/>
			</g>
		</g>
	</g>
	<g>
		<line x1="350.26" y1="390.56" x2="350.26" y2="446.36"/>
		<g>
			<line class="st13" x1="350.26" y1="404.68" x2="350.26" y2="432.24"/>
			<g>
				<polygon class="st14" points="350.26,390.56 342.13,410.46 350.26,405.74 358.39,410.46 				"/>
			</g>
			<g>
				<polygon class="st14" points="350.26,446.36 342.13,426.46 350.26,431.18 358.39,426.46 				"/>
			</g>
		</g>
	</g>
	<g>
		<line x1="366.81" y1="174.19" x2="366.81" y2="225.46"/>
		<g>
			<line class="st13" x1="366.81" y1="188.31" x2="366.81" y2="211.34"/>
			<g>
				<polygon class="st14" points="366.81,174.19 358.67,194.09 366.81,189.36 374.93,194.09 				"/>
			</g>
			<g>
				<polygon class="st14" points="366.81,225.46 358.67,205.56 366.81,210.28 374.93,205.56 				"/>
			</g>
		</g>
	</g>
	<text transform="matrix(1.049 0 0 1 366.8058 418.4591)" class="st10 st12">padding</text>
	<text transform="matrix(1.049 0 0 1 296.6353 204.7416)" class="st10 st12">padding</text>
	<rect x="676.62" y="174.66" class="st5" width="487.77" height="271.7"/>
	<rect x="755.99" y="226.93" class="st6" width="331.91" height="166.46"/>
	<rect x="755.99" y="226.93" class="st7" width="331.91" height="110.74"/>
	<text transform="matrix(1.049 0 0 1 755.9869 246.4764)"><tspan x="0" y="0" class="st0 st8 st9">Inhoud van dit element </tspan><tspan x="0" y="34.8" class="st0 st8 st9">(tweede child)</tspan></text>
	<text transform="matrix(1.049 0 0 1 684.5524 310.1639)" class="st10 st12">padding</text>
	<text transform="matrix(1.049 0 0 1 237.8335 521.5168)" class="st10 st12">marge</text>
	<rect x="333.9" y="811.7" class="st7" width="17.27" height="0"/>
	<g>
		<line x1="676.62" y1="321.27" x2="755.99" y2="321.27"/>
		<g>
			<line class="st13" x1="690.74" y1="321.27" x2="741.87" y2="321.27"/>
			<g>
				<polygon class="st14" points="676.62,321.27 696.51,329.4 691.79,321.27 696.51,313.14 				"/>
			</g>
			<g>
				<polygon class="st14" points="755.99,321.27 736.09,329.4 740.81,321.27 736.09,313.14 				"/>
			</g>
		</g>
	</g>
	<text transform="matrix(1.0109 0 0 1 1095.549 304.6131)" class="st10 st12">padding</text>
	<g>
		<line x1="1087.9" y1="315.71" x2="1164.39" y2="315.71"/>
		<g>
			<line class="st13" x1="1102.02" y1="315.71" x2="1150.26" y2="315.71"/>
			<g>
				<polygon class="st14" points="1087.9,315.71 1107.8,323.85 1103.08,315.71 1107.8,307.59 				"/>
			</g>
			<g>
				<polygon class="st14" points="1164.39,315.71 1144.49,323.85 1149.21,315.71 1144.49,307.59 				"/>
			</g>
		</g>
	</g>
	<text transform="matrix(1.049 0 0 1 1172.0637 397.9429)" class="st10 st12">marge</text>
	<g>
		<line x1="1164.39" y1="410.15" x2="1229.23" y2="410.15"/>
		<g>
			<line class="st13" x1="1178.51" y1="410.15" x2="1215.11" y2="410.15"/>
			<g>
				<polygon class="st14" points="1164.39,410.15 1184.28,418.28 1179.56,410.15 1184.28,402.02 				"/>
			</g>
			<g>
				<polygon class="st14" points="1229.23,410.15 1209.33,418.28 1214.05,410.15 1209.33,402.02 				"/>
			</g>
		</g>
	</g>
	<g>
		<line x1="939.92" y1="390.56" x2="939.92" y2="446.36"/>
		<g>
			<line class="st13" x1="939.92" y1="404.68" x2="939.92" y2="432.24"/>
			<g>
				<polygon class="st14" points="939.92,390.56 931.79,410.46 939.92,405.74 948.05,410.46 				"/>
			</g>
			<g>
				<polygon class="st14" points="939.92,446.36 931.79,426.46 939.92,431.18 948.05,426.46 				"/>
			</g>
		</g>
	</g>
	<g>
		<line x1="956.47" y1="174.19" x2="956.47" y2="225.46"/>
		<g>
			<line class="st13" x1="956.47" y1="188.31" x2="956.47" y2="211.34"/>
			<g>
				<polygon class="st14" points="956.47,174.19 948.34,194.09 956.47,189.36 964.6,194.09 				"/>
			</g>
			<g>
				<polygon class="st14" points="956.47,225.46 948.34,205.56 956.47,210.28 964.6,205.56 				"/>
			</g>
		</g>
	</g>
	<text transform="matrix(1.049 0 0 1 956.4716 418.4591)" class="st10 st12">padding</text>
	<text transform="matrix(1.049 0 0 1 886.3011 204.7416)" class="st10 st12">padding</text>
	<g>
		<line x1="462.49" y1="70.53" x2="462.49" y2="174.19"/>
		<g>
			<line class="st13" x1="462.49" y1="84.65" x2="462.49" y2="160.07"/>
			<g>
				<polygon class="st14" points="462.49,70.53 454.36,90.43 462.49,85.71 470.62,90.43 				"/>
			</g>
			<g>
				<polygon class="st14" points="462.49,174.19 454.36,154.29 462.49,159.01 470.62,154.29 				"/>
			</g>
		</g>
	</g>
	<g>
		<line x1="759.16" y1="70.53" x2="759.16" y2="174.79"/>
		<g>
			<line class="st13" x1="759.16" y1="84.65" x2="759.16" y2="160.67"/>
			<g>
				<polygon class="st14" points="759.16,70.53 751.03,90.43 759.16,85.71 767.29,90.43 				"/>
			</g>
			<g>
				<polygon class="st14" points="759.16,174.79 751.03,154.89 759.16,159.61 767.29,154.89 				"/>
			</g>
		</g>
	</g>
	<g>
		<line x1="300.62" y1="446.83" x2="300.62" y2="596.2"/>
		<g>
			<line class="st13" x1="300.62" y1="460.95" x2="300.62" y2="582.08"/>
			<g>
				<polygon class="st14" points="300.62,446.83 292.49,466.73 300.62,462.01 308.75,466.73 				"/>
			</g>
			<g>
				<polygon class="st14" points="300.62,596.2 292.49,576.3 300.62,581.03 308.75,576.3 				"/>
			</g>
		</g>
	</g>
	<text transform="matrix(1.049 0 0 1 1059.0449 526.2245)" class="st10 st12">marge</text>
	<text transform="matrix(1.049 0 0 1 769.9155 123.3594)" class="st10 st12">marge</text>
	<text transform="matrix(1.049 0 0 1 471.491 122.3593)" class="st10 st12">marge</text>
	<g>
		<line x1="1043.78" y1="446.83" x2="1043.78" y2="596.2"/>
		<g>
			<line class="st13" x1="1043.78" y1="460.95" x2="1043.78" y2="582.08"/>
			<g>
				<polygon class="st14" points="1043.78,446.83 1035.65,466.73 1043.78,462.01 1051.91,466.73 				"/>
			</g>
			<g>
				<polygon class="st14" points="1043.78,596.2 1035.65,576.3 1043.78,581.03 1051.91,576.3 				"/>
			</g>
		</g>
	</g>
	<g>
		<line class="st0" x1="634.66" y1="24.46" x2="635.66" y2="633.81"/>
		<g>
			<line class="st1" x1="634.66" y1="24.46" x2="634.67" y2="30.46"/>
			<line class="st15" x1="634.69" y1="42.65" x2="635.64" y2="621.72"/>
			<line class="st1" x1="635.65" y1="627.81" x2="635.66" y2="633.81"/>
		</g>
	</g>
	<g>
		<line x1="635.66" y1="278.78" x2="676.62" y2="278.78"/>
		<g>
			<line class="st13" x1="649.78" y1="278.78" x2="662.49" y2="278.78"/>
			<g>
				<polygon class="st14" points="635.66,278.78 655.56,286.91 650.84,278.78 655.56,270.65 				"/>
			</g>
			<g>
				<polygon class="st14" points="676.62,278.78 656.72,286.91 661.44,278.78 656.72,270.65 				"/>
			</g>
		</g>
	</g>
</g>
</svg>
