<?xml version="1.0" encoding="utf-8"?>
<svg version="1.0" xmlns="http://www.w3.org/2000/svg" xmlns:xlink="http://www.w3.org/1999/xlink" x="0px" y="0px"
	 viewBox="0 0 697 669" style="enable-background:new 0 0 697 669;" xml:space="preserve">

<g>
	<g>
		<g>
			<g>
				<g>
					<path fill="rgba(200,200,255, 0.8)" d="M531.8,352.6c-73,0-132.2,59.2-132.2,132.2c0,73,59.2,132.2,132.2,132.2c73,0,132.2-59.2,132.2-132.2
						C664,411.9,604.8,352.6,531.8,352.6z M540.3,582.6v-11.4c0-4.7-3.8-8.5-8.5-8.5c-4.7,0-8.5,3.8-8.5,8.5v11.4
						c-47.3-4.1-85.2-41.9-89.2-89.2h11.5c4.7,0,8.5-3.8,8.5-8.5c0-4.8-3.8-8.5-8.5-8.5h-11.5c4.1-47.4,41.9-85.1,89.2-89.2v11.4
						c0,4.7,3.8,8.5,8.5,8.5c4.7,0,8.5-3.8,8.5-8.5v-11.4c47.4,4.1,85.2,41.9,89.2,89.2h-11.5c-4.7,0-8.5,3.8-8.5,8.5
						c0,4.7,3.8,8.5,8.5,8.5h11.5C625.5,540.7,587.7,578.5,540.3,582.6z"/>
				</g>
			</g>
		</g>
		<g>
			<g>
				<g>
					<path fill="rgba(155,155,255, 0.9)" d="M581.1,472.1h-30.7c-4.1-5.9-10.9-9.8-18.6-9.8c-0.1,0-0.2,0-0.4,0L503.5,423c-4.1-5.7-12-7.1-17.8-3
						c-5.7,4.1-7.1,12.1-3,17.8l28,39.4c-0.9,2.4-1.4,5-1.4,7.7c0,12.5,10.1,22.5,22.6,22.5c7.7,0,14.5-3.9,18.6-9.8h30.7
						c7,0,12.8-5.7,12.8-12.7C593.8,477.8,588.1,472.1,581.1,472.1z"/>
				</g>
			</g>
		</g>
		<g>
			<g>
				<g>
					<path fill="rgba(155,155,155, 0.5)" d="M179.2,221.7c23.1,0,41.9-18.7,41.9-41.9V89c0-23.1-18.7-41.9-41.9-41.9c-23.1,0-41.8,18.7-41.8,41.9v90.8
						C137.4,203,156.1,221.7,179.2,221.7z"/>
				</g>
			</g>
		</g>
		<g>
			<g>
				<g>
					<path fill="rgba(155,155,155, 0.5)" d="M435.6,221.7c23.1,0,41.9-18.7,41.9-41.9V89c0-23.1-18.7-41.9-41.9-41.9c-23.1,0-41.8,18.7-41.8,41.9v90.8
						C393.7,203,412.5,221.7,435.6,221.7z"/>
				</g>
			</g>
		</g>
		<g>
			<g>
				<g>
					<path fill="rgba(155,155,155, 0.5)" d="M236,337.9c0-11.9-9.7-21.6-21.6-21.6h-40.1c-11.9,0-21.7,9.7-21.7,21.6V378c0,12,9.7,21.7,21.7,21.7h40.1
						c12,0,21.6-9.7,21.6-21.7V337.9z"/>
				</g>
			</g>
		</g>
		<g>
			<g>
				<g>
					<path fill="rgba(155,155,155, 0.5)" d="M349.1,337.9c0-11.9-9.7-21.6-21.6-21.6h-40.1c-11.9,0-21.6,9.7-21.6,21.6V378c0,11.9,9.7,21.6,21.6,21.6
						h40.1c11.9,0,21.6-9.7,21.6-21.6V337.9z"/>
				</g>
			</g>
		</g>
		<g>
			<g>
				<g>
					<path fill="rgba(155,155,155, 0.5)" d="M400.5,316.3c-12,0-21.7,9.7-21.7,21.6V378c0,10.8,8.1,19.4,18.4,21c15.9-24.7,38.3-44.7,64.9-57.7v-3.4
						c0-11.9-9.7-21.6-21.6-21.6L400.5,316.3L400.5,316.3z"/>
				</g>
			</g>
		</g>
		<g>
			<g>
				<g>
					<path fill="rgba(155,155,155, 0.5)" d="M174.2,424.9c-11.9,0-21.7,9.7-21.7,21.6v40.1c0,11.9,9.7,21.6,21.7,21.6h40.1c11.9,0,21.6-9.7,21.6-21.6
						v-40.1c0-11.9-9.7-21.6-21.6-21.6H174.2z"/>
				</g>
			</g>
		</g>
		<g>
			<g>
				<g>
					<path fill="rgba(155,155,155, 0.5)" d="M327.5,425h-40.1c-11.9,0-21.6,9.7-21.6,21.6v40.1c0,11.9,9.7,21.6,21.6,21.6h40.1
						c11.9,0,21.6-9.7,21.6-21.6v-40.1C349.1,434.6,339.4,425,327.5,425z"/>
				</g>
			</g>
		</g>
		<g>
			<g>
				<g>
					<path fill="rgba(155,155,155, 0.5)" d="M385.9,549.7H182.5c-35,0-63.5-28.5-63.5-63.5V273.7h377v55.6c11.6-2.7,23.5-4.2,35.9-4.2
						c10.6,0,21,1.1,31,3.1V128.3h-60.3v51.5c0,36.9-30,67-67,67c-36.9,0-66.9-30-66.9-67v-51.5H246.2v51.5c0,36.9-30,67-67,67
						c-36.9,0-67-30-67-67v-51.5H52v357.9c0,72,58.4,130.5,130.5,130.5h249.9c3,0,5.9-0.2,8.8-0.4
						C417.2,599.7,398,576.6,385.9,549.7z"/>
				</g>
			</g>
		</g>
	</g>
</g>
</svg>
