<?xml version="1.0" encoding="utf-8"?>
<svg version="1.0"  xmlns="http://www.w3.org/2000/svg" xmlns:xlink="http://www.w3.org/1999/xlink" x="0px" y="0px"
	 viewBox="0 0 193 147.6" style="enable-background:new 0 0 193 147.6;" xml:space="preserve">
<style type="text/css">
	.st0{fill:#C7C5C9;}
</style>
<g>
	<g>
		<path class="st0" d="M89.2,1c-1.8,6.8-0.6,15.1-0.5,22.1c0.1,8.4,0.6,17,2.4,25.3c0,0,0,0,0,0c-0.1,0.1-0.2,0.2-0.3,0.2
			c-12,0.9-24,1.1-36,1.1c-0.1,0-0.2,0-0.3,0C37.2,49.8,20,49.6,2.8,50.6c-0.2,0-0.4,0.1-0.5,0.2c-0.7,0.2-1.3,0.7-1.3,1.7
			c0.6,15.9-0.6,31.8-0.2,47.7c-1.1,0.6-0.9,2.5,0.3,2.6c0.5,0.8,1.7,0.7,2.1-0.2c21.5-2.5,43.3,0.7,64.8,0.4c0.1,0.2,0.4,0.3,0.5,0
			c0,0,0,0,0-0.1c8.1-0.2,16.2-0.8,24.2-2.5c0,0.1-0.1,0.1-0.1,0.3c0,0.2,0,0.3-0.1,0.5c0,0,0,0,0,0c0,0,0,0.1,0,0.1
			c-1.3,14.3-7.3,31.6-2.8,45.7c0.2,0.6,0.9,0.8,1.4,0.4c0.1-0.1,0.1-0.1,0.2-0.2c0.1-0.1,0.2-0.3,0.2-0.4c0.2,0.2,0.5,0.3,0.9,0.1
			c35.2-19.8,69.9-46,100.1-73c1-0.9,0.5-2-0.3-2.6C178,50,155,39.2,134.4,25.4c-12.9-8.6-27.6-19.5-42.1-25.3
			c-0.4-0.2-0.7-0.1-1,0.1C90.6-0.2,89.4,0,89.2,1z M34,96.7c-2.6-0.1-5.2-0.1-7.8,0c15.4-11.5,25.5-29.6,39-43.2
			c2.8-0.1,5.5-0.1,8.3-0.2C58.5,65.3,46.7,82.4,34,96.7z M75.6,53.2c0.7,0,1.5-0.1,2.2-0.2C63.4,64.5,53.6,83,42,96.8
			c-0.1,0.1-0.1,0.2-0.1,0.3c-2.3-0.1-4.5-0.2-6.8-0.3C48.9,82.5,62.4,67.9,75.6,53.2z M48.8,69.6c-7.3,9.6-14.3,19.8-23.9,27.2
			c0,0,0,0,0,0c-1.8,0.1-3.6,0.1-5.4,0.3c15.1-12.4,27.8-27.7,39.2-43.4c1.3,0,2.6,0,3.9,0C57,57.6,52.8,64.3,48.8,69.6z M52.6,53.7
			c1.3,0,2.6,0,4,0C44.7,69,32.6,84,18.3,97.2c-2.2,0.2-4.3,0.4-6.4,0.7C27.6,85.7,39.9,69,52.6,53.7z M11.2,98
			c-2,0.3-4,0.7-6.1,1.2c8.7-9.4,16.5-19.7,25.5-28.9c4.1-4.2,8.1-8.9,11.9-13.4c0.9-1.1,2.4-2,3.2-3.2c1.5,0,3,0,4.5,0
			C36.4,67.6,26.4,85.2,11.2,98z M42.9,97.1c13-14.4,23.6-30.4,37.3-44.2c2-0.1,4-0.2,6-0.4c-15,13.1-25.8,30.4-39.5,44.8
			C45.4,97.2,44.2,97.2,42.9,97.1z M4.6,53c1.8,0,3.6,0.1,5.4,0.1c-2.2,2.7-3.8,6-5.3,9.2C4.7,59.2,4.7,56.1,4.6,53z M4.6,65
			C4.7,65,4.7,65,4.6,65c2.2-4.2,4.8-7.9,7.2-11.9c1,0,2,0,3,0.1c-0.5,1.1-1.3,2.3-1.6,2.8c-1.2,2-2.5,4-3.8,5.9
			c-1.6,2.4-3.2,4.7-4.9,7C4.6,67.7,4.6,66.3,4.6,65z M4.3,79.3C4.4,79.3,4.4,79.3,4.3,79.3c2.5-4.8,5.7-9.2,8.9-13.5
			c2.7-3.7,6.3-7.4,8-11.7c0.2-0.5-0.6-1-0.9-0.5c-5.9,7.3-12,16-16,24.6c0.1-2.3,0.1-4.7,0.2-7c2.7-3.9,5.5-7.6,8.2-11.5
			c0.8-1.2,3.3-4.1,3.7-6.4c4.1,0.1,8.2,0.1,12.2,0.2c-9.8,8.7-18.6,21.3-24.7,32.6C4.2,83.8,4.2,81.5,4.3,79.3z M4,86.4
			c0.1,0.1,0.3,0.2,0.4,0c7.1-12.5,17.1-22,26.3-32.8c0-0.1,0-0.1,0.1-0.2c2.1,0,4.2,0.1,6.3,0.1c-1,2.3-4.1,5.4-5.2,6.7
			c-3.4,4.3-6.9,8.5-10.5,12.7C15.8,79.6,10.1,86.3,4,92.6c-0.2,0.2,0.1,0.5,0.3,0.3c7.4-7.4,14.4-15.3,21.3-23.2
			c3.3-3.8,6.7-7.6,9.8-11.7c0.9-1.1,2.5-2.8,3-4.5c1.7,0,3.3,0,5,0.1c-2,1.3-4.1,4.5-5.2,5.9c-3.6,4.2-7.3,8.4-11.1,12.3
			c-8.3,8.6-15,18.6-22.9,27.5c-0.2,0.1-0.5,0.1-0.7,0.1C3.6,95.1,3.8,90.8,4,86.4z M189.9,71.6c-30.3,26.9-64.9,50.8-98.3,73.7
			c-0.2,0.1-0.3,0.3-0.3,0.5c-0.2-0.4-0.3-0.8-0.5-1.2c0-0.1-0.1-0.1-0.1-0.1c1.1-0.5,1.5-1.5,1.1-2.8c16.9-13.6,36-24.3,52.7-38.2
			c14.1-11.8,24.8-27.5,41.5-36c0,0,0-0.1,0.1-0.1C187.2,68.8,188.6,70.1,189.9,71.6z M185,66.4c-13.8,5.8-24.1,18.4-34.6,28.7
			c-17.7,17.5-39.8,29.6-59,45.3c0-1.8,0.1-3.6,0.2-5.4c0-0.2,0.1-0.5,0.1-0.7c33.4-18.8,59.4-48.1,88.6-72.4
			C182,63.4,183.6,64.9,185,66.4z M179.6,61.1c-30.4,22.8-55.4,51.7-87.6,72.2c0.2-1.9,0.4-3.7,0.7-5.5
			c15.5-7.6,27.7-19.9,39.8-31.9c13.7-13.5,28.1-26.3,43.1-38.3C176.9,58.7,178.2,59.9,179.6,61.1z M174.4,56.6
			c-27.6,21.8-50.8,53.2-81.6,70.1c0.3-1.7,0.6-3.3,0.8-5c27.8-20.3,50.8-46.2,77.6-67.7C172.3,54.9,173.4,55.7,174.4,56.6z
			 M170.1,53.2c-26.8,20.8-49.7,46-76.2,67.2c0.3-1.4,0.5-2.8,0.8-4.3c0.1,0.1,0.3,0.2,0.5,0c20.7-23.9,54.8-38.2,70.6-66.1
			C167.2,51,168.7,52,170.1,53.2z M164.7,49.2c-19.2,26.4-49.6,40.9-69.9,66.2c0.5-2.6,0.8-5.2,1-7.8c21.4-20.7,44.7-39.4,65.5-60.7
			C162.4,47.6,163.6,48.3,164.7,49.2z M160,45.9c-21.4,20.1-44,39.1-64.2,60.4c0.1-1.9,0.1-3.7-0.1-5.6c-0.1-0.5-0.3-0.8-0.6-1.1
			c11-9.8,22.5-18.9,33.7-28.6c9.4-8.1,20.2-17.3,26.1-28.6C156.6,43.6,158.3,44.7,160,45.9z M153.5,41.5
			C137,64.1,113.7,79.4,94.4,99.3c-0.2,0-0.4,0-0.7,0c0-0.6-0.3-1.3-1.1-1.2c-1.8,0.2-3.6,0.4-5.4,0.5c22.2-17.8,42.6-38.5,62-59.3
			c0.1-0.1,0.1-0.2,0.1-0.4C150.8,39.8,152.2,40.6,153.5,41.5z M148.5,38.3c0,0-0.1,0-0.1,0c-21.1,19.9-40.8,41.1-62.6,60.3
			c-2.5,0.1-4.9,0.2-7.4,0.2c23.1-19.8,41.4-44.3,64.7-64C144.8,36,146.7,37.1,148.5,38.3z M141.6,34
			c-24.3,18.7-42.1,44.3-64.7,64.8c-1.7,0-3.4,0-5.1-0.1c11.4-14.3,25.4-26.1,38-39.3c6.9-7.3,12.7-15.5,19.6-22.8
			c1.1-1.2,2.4-2.2,3.5-3.3c1-0.9,2-1.9,3-2.8C137.8,31.7,139.7,32.8,141.6,34z M133.9,29.2c-10.2,5.9-18.3,20.7-25.4,28.8
			C96.1,72,81.5,83.5,70.8,98.7c-2.6-0.1-5.3-0.2-7.9-0.4c27.2-18.1,47-46.1,66.1-72.1C130.6,27.2,132.2,28.2,133.9,29.2z
			 M124.5,23.4c1,0.6,2,1.3,3.1,1.9c-20,25.7-39.1,53.9-66,72.9c0,0,0,0,0,0.1c-1.5-0.1-3-0.2-4.5-0.3
			c14.4-14.2,27.9-29.3,41.3-44.4c8.1-9.1,20.9-19,25.9-30.3c0,0,0,0,0-0.1C124.3,23.3,124.4,23.4,124.5,23.4z M123.2,22.7
			C123.1,22.7,123.1,22.7,123.2,22.7c-8.7,12-20.1,22.6-29.8,33.7C81.2,70.2,68.8,83.9,56.5,97.7c-0.1,0.1,0,0.2,0,0.3
			c-2.9-0.2-5.8-0.4-8.7-0.6c15-13.6,25.7-31.3,40.6-45.1c1-0.1,1.9-0.1,2.9-0.2c0.5,0,0.8-0.3,1.1-0.6c0.8,0.2,1.7-0.2,1.6-1.1
			c-0.1-0.9-0.2-1.7-0.3-2.6c7.7-9.1,16.6-18.2,22.5-28.6C118.8,20.4,121.2,21.6,123.2,22.7z M115.2,18.6c-4,5.9-8.3,11.5-12.8,17
			c-2.9,3.6-6.2,7.2-8.7,11.1c-0.2-2.2-0.3-4.3-0.5-6.5c7.5-6.6,14-14.5,19.7-22.7C113.6,17.9,114.4,18.2,115.2,18.6z M111.8,17
			c-5.9,7.8-11.7,15.6-18.7,22.5c-0.2-2.4-0.3-4.8-0.4-7.1c5.7-5,10.1-11.5,14-17.9C108.4,15.3,110.1,16.1,111.8,17z M105.5,13.7
			c-4.2,5.9-7.6,12.3-12.8,17.4c-0.1-1.9-0.1-3.9-0.2-5.8c2.4-2.3,4.8-4.6,6.9-7.2c1.4-1.7,3-3.6,3.9-5.7
			C104,12.9,104.7,13.3,105.5,13.7z M101.8,11.7c-1.3,2.1-2.5,4.3-4.1,6.4c-1.7,2.1-3.5,4-5.3,6c0-0.3,0-0.6,0-0.9
			c0-1.9,0-3.8,0.1-5.8c2.3-2.3,4.5-4.9,6.2-7.6C99.7,10.4,100.7,11,101.8,11.7z M97.3,8.7c-1.6,2.1-3.1,4.4-4.7,6.5
			c0.2-3.6,0.3-7.3-0.1-10.7C93.8,5.9,95.4,7.3,97.3,8.7z"/>
	</g>
</g>
</svg>
