<?xml version="1.0" encoding="utf-8"?>
<!-- Generator: Adobe Illustrator 24.2.1, SVG Export Plug-In . SVG Version: 6.00 Build 0)  -->
<svg version="1.1"
	 id="svg2" xmlns:cc="http://creativecommons.org/ns#" xmlns:dc="http://purl.org/dc/elements/1.1/" 
     xmlns:svg="http://www.w3.org/2000/svg"
	 xmlns="http://www.w3.org/2000/svg" xmlns:xlink="http://www.w3.org/1999/xlink" x="0px" y="0px" viewBox="0 0 525 531"
	 style="enable-background:new 0 0 525 531;" xml:space="preserve">
<style type="text/css">
	.st0{fill-rule:evenodd;clip-rule:evenodd;fill:none;stroke:#B9B7BB;stroke-width:10;stroke-miterlimit:4.3212;}
	.st1{fill:#B9B7BB;}
</style>


<g transform="translate(0,-552.36275)">
	<g id="g10413" transform="matrix(23.647471,0,0,23.647471,-6686.0374,-11387.932)">
		
			<g id="g10385" transform="matrix(0.19829463,0,0,0.19829468,62.608708,416.70719)" >
			<g id="g10381" transform="matrix(0.78330585,0,0,0.78330585,962.90004,91.574184)">
				<path id="path10377" />
				
					<path id="path10379" class="st1" d="
					M256.2,462.3c0,2.7,0,5.4,0,8.1c-2.7,0-5.4,0-8.1,0c0,2.7,0,5.4,0,8.1c2.7,0,5.4,0,8.1,0c0,2.8,0,5.7,0,8.5l-3.1,3.1
					c-2.6,2.6-3.2,3.6-4.1,6.3c-0.6,2-1,4.6-1,6.6c0,1.8-0.1,3.3-0.3,3.3c-0.1,0-1.9-1-4-2.1c-5.4-3.1-9.1-4.2-14.5-4.5
					c-5.6-0.3-8.8,0.4-13.4,2.5c-8.5,4.1-14,13.6-12.5,21.7c1.1,6.1,4.8,11.7,12.9,19.4l5.2,4.9l0.3,11.3c0.3,9.6,0.4,11.4,1.2,12.5
					c1.9,2.8,11.8,6.3,21.9,7.9c3,0.5,9.6,0.7,15.7,0.7c6.1,0,12.7-0.2,15.7-0.7c10.1-1.6,19.9-5.1,21.9-7.9c0.7-1,0.9-2.8,1.2-12.5
					l0.3-11.3l5.2-4.9c8.1-7.7,11.8-13.3,12.9-19.4c1.5-8.1-4-17.6-12.5-21.7c-4.6-2.2-7.8-2.8-13.4-2.5c-5.4,0.3-9.2,1.4-14.5,4.5
					c-2,1.2-3.8,2.1-4,2.1c-0.1,0-0.3-1.5-0.3-3.3c0-2-0.4-4.6-1-6.6c-0.9-2.8-1.5-3.7-4.1-6.3l-3.1-3.1c0-2.8,0-5.7,0-8.5
					c2.7,0,5.4,0,8.1,0c0-2.7,0-5.4,0-8.1c-2.7,0-5.4,0-8.1,0c0-2.7,0-5.4,0-8.1C262.1,462.3,259.2,462.3,256.2,462.3L256.2,462.3z
					 M267.2,496.1c1.2,2.5,1.4,3.3,1.4,6.9c0,3.3-0.3,4.8-1.2,7.2c-2,5.2-6.3,13.9-6.7,13.9c-0.5,0-4.7-8.7-6.7-13.9
					c-1-2.5-1.2-4-1.2-7.2c0-3.6,0.1-4.5,1.4-6.9C257.6,489.1,264.3,490.5,267.2,496.1L267.2,496.1z M258.8,495.9
					c-3.2,3-2.7,11.5,1,17.1c0.3,0.4,0.6,0.8,0.8,1c0.2-0.2,0.5-0.5,0.8-1c3.7-5.6,4.2-14.2,1-17.1
					C261,494.6,260.1,494.8,258.8,495.9L258.8,495.9z M227,503.6c3.2,0,6.8,0.5,9.3,1.3c9.4,3.3,18.2,13.6,21.1,24.7
					c1,3.7,1.5,13.4,0.8,13.9c-0.3,0.2-3.7,0.5-7.5,0.8c-7.1,0.5-11,1-16.2,2.1c-5.8,1.3-5.8,1.3-8.1-0.1c-4.6-2.9-14-12-16.5-15.9
					c-2.9-4.5-3.4-10.8-1.3-15.5c2.2-5.1,8.3-9.7,14.4-10.9C224.2,503.7,225.5,503.6,227,503.6L227,503.6z M293,503.6
					c0.4,0,0.8,0,1.2,0c1.5,0,2.8,0.1,4,0.4c6.1,1.3,12.1,5.9,14.4,10.9c2.1,4.7,1.5,11-1.3,15.5c-2.4,3.9-11.9,12.9-16.5,15.9
					c-2.2,1.4-2.3,1.4-8.1,0.1c-5.2-1.1-9.1-1.6-16.2-2.1c-3.8-0.2-7.2-0.6-7.5-0.8c-0.8-0.5-0.2-10.1,0.8-13.9
					c2.9-11.1,11.7-21.4,21.1-24.7C287.1,504.2,290.2,503.7,293,503.6L293,503.6z M228.4,508.3c-0.4,0-0.7,0-1.1,0
					c-6.6,0.2-12.5,3.4-14.7,9.3c-1.4,3.7-1.3,5.3,0.5,8.9c1.2,2.4,2.9,4.4,8.2,9.7c3.7,3.6,6.9,6.6,7.2,6.6c0.3,0,3.1-0.5,6.3-1.2
					c4.7-1,16.5-2.6,18.8-2.7c1.7,0-0.4-8.6-4-15.8c-2.1-4.2-3.3-6.1-5.4-8.1C239.8,510.7,233.9,508.5,228.4,508.3L228.4,508.3z
					 M292.8,508.3c-5.5,0.1-11.3,2.3-15.8,6.7c-2.1,2-3.3,3.9-5.4,8.1c-3.6,7.2-5.7,15.8-4,15.8c2.3,0,14.1,1.7,18.8,2.7
					c3.2,0.7,6,1.2,6.3,1.2c0.3,0,3.6-3,7.2-6.6c5.3-5.2,7-7.2,8.2-9.7c1.8-3.6,1.9-5.3,0.5-8.9c-2.2-5.9-8.1-9.1-14.7-9.3
					C293.5,508.4,293.2,508.3,292.8,508.3L292.8,508.3z M257.4,553.6c1.1,0,2.2,0,3.2,0c8.7,0,17.4,0.3,20.8,0.9
					c5.7,1,8.9,2,10.3,3.4c1.2,1.1,1.4,1.8,0.5,2.7c-0.8,0.8-1.2,0.7-7.8-0.6c-7-1.4-15.4-2.2-23.8-2.2c-8.4,0-16.8,0.7-23.8,2.2
					c-6.6,1.4-7,1.4-7.8,0.6c-0.8-0.8-0.7-1.5,0.5-2.7c1.4-1.3,4.6-2.4,10.3-3.4C242.8,553.9,249.9,553.6,257.4,553.6L257.4,553.6z
					 M260.6,562.6c1.1,0,2.2,0,3.2,0.1c19.6,1,32.1,4.6,28.4,8.3c-0.7,0.7,0.2,0.8-7.2-1.1c-8.3-2.2-14.1-2.8-24.4-2.8
					c-10.3,0-16.1,0.7-24.4,2.8c-7.4,1.9-6.5,1.8-7.2,1.1c-3.7-3.7,8.8-7.3,28.4-8.3C258.5,562.6,259.5,562.6,260.6,562.6z"/>
			</g>
		</g>
	</g>
</g>
</svg>