<?xml version="1.0" encoding="utf-8"?>
<svg version="1.0" xmlns="http://www.w3.org/2000/svg" xmlns:xlink="http://www.w3.org/1999/xlink" x="0px" y="0px"
	 viewBox="0 0 58.2 58.2" style="enable-background:new 0 0 58.2 58.2;" xml:space="preserve">

<g>
	<g>
		<path fill="#c7c7c7" d="M12.2,2.8c0,0.1,0,0.1,0.1,0.2c0,0.1,0,0.2,0.1,0.3c0.6,1.3,1.1,2.6,1.7,3.9c0,0.1-5.3,4.7-5.7,5.3
			C4.8,16.9,2.7,21.8,2,27.3c-1.3,9.5,3.1,18.9,10.3,24.9c17.2,14.3,42.4,1.1,44.1-19.9c0.7-8.7-3.9-20.5-12.1-24.7
			c-2.2-1.1-3.5,1.8-4.4,3.2c-1.4,2.1-4,4.6-4.3,7.2c-0.1,0.7,0.5,1.7,1,2.1c2.2,1.7,3.5,3.7,4.7,6.3c3.5,7.6-3.6,15.1-10.6,16.5
			c-9.7,1.8-16.4-8.2-13.6-16.8c-0.2,0.5,2.7-4.9,3-4.3c0.3,0.7,0.6,1.3,0.9,2c0.5,1.1,0.8,2.4,1.7,3.2c2.8,2.5,7-7.3,7.8-8.6
			c1.7-2.7,3.3-5.4,5-8.2c0.7-1.2,1.8-2.6,1.1-4.1c-0.7-1.4-2.2-1.5-3.5-1.8c-3.4-0.8-6.9-1.6-10.3-2.4C20.5,1.3,11.6-2.5,12.2,2.8z
			 M4.3,23.5c0-0.1,0.1-0.2,0.1-0.3c0,0,0.1,0.1,0.1,0.1C6,24.3,7.3,25.1,8.7,26c0.5,0.3,0.5,0.3,0,0c-1.4-0.8-2.8-1.6-4.2-2.4
			C4.5,23.5,4.4,23.5,4.3,23.5z M3.5,29.4c0,0-0.1,0-0.1,0c0-0.5,0.1-1.1,0.1-1.6c0,0,0,0,0.1,0.1c1.8,1.4,3.7,2.8,5.5,4.1
			c0.4,0.3,0.4,0.4-0.1,0.1C7.2,31.2,5.4,30.3,3.5,29.4z M17.1,53.4c-3.5-1.7-6.4-4.1-8.6-7c4.7,3,9.5,5.8,14.2,8.9
			C20.8,54.9,18.9,54.2,17.1,53.4z M26.7,55.9c-6.6-4.7-13.6-8.8-20.4-13.1c-0.3-0.6-0.6-1.3-0.9-1.9c8.9,4.9,17.6,10,26.4,15
			C30.1,56.1,28.4,56.1,26.7,55.9z M43.9,51.6c-4.1-2.3-8.2-4.6-12.3-7c1-0.2,1.9-0.4,2.8-0.8c3.8,2.2,7.5,4.3,11.3,6.3
			C45.2,50.7,44.6,51.2,43.9,51.6z M40.5,13.5c-0.1-0.1-0.3-0.1-0.4-0.1c1-1.7,2.2-3.3,3.8-3.3c0.8,0.4,1.7,0.7,2.5,1.1
			c2.6,2.1,4.6,4.7,6,7.5c-3.4-1.6-6.9-3-10.4-4.5C41.4,14,40.9,13.7,40.5,13.5z M37.5,18.3c-0.2-0.5,0.1-1,0.9-2.1
			c0.2-0.3,0.4-0.7,0.6-1c0.1,0,0.1,0.1,0.2,0.1c1.1,0.5,2.2,0.9,3.3,1.4c3.6,1.8,7.3,3.5,11,5.2c0,0,0,0,0.1,0
			c0.5,1.5,0.9,3.1,1.1,4.7c0,0,0,0,0,0C49,23.8,43.2,21,37.5,18.3z M41.2,23.2C41.2,23.2,41.2,23.2,41.2,23.2
			c-0.2-0.3-0.3-0.5-0.4-0.8c-0.1-0.2-0.2-0.4-0.4-0.6c2.7,1.3,5.4,2.6,8.2,3.9c0.5,0.2,0.5,0.3,0,0.1C46.1,24.9,43.7,24,41.2,23.2z
			 M42.7,26.1c-0.4-0.3-0.4-0.4,0.1-0.2c4,1.5,8,2.9,12,4.4c0,0,0,0,0,0c0,1.3-0.1,2.6-0.3,3.9c-1.5-0.8-3-1.6-4.6-2.4
			c-0.5-0.3-1.2-0.8-1.6-1.1C46.6,29.1,44.7,27.6,42.7,26.1z M43.3,31.1c0.1,0.1,0.2,0.2,0.4,0.3c2.5,1.4,5,2.8,7.5,4.2
			c0.5,0.3,1.2,0.8,1.6,1.2c0.3,0.4,0.7,0.8,1,1.1c-0.6,2.1-1.5,4.1-2.7,6c-0.6-0.3-1.3-0.6-1.9-0.9c-0.5-0.2-0.8-0.9-1-1.4
			c-0.1-0.4-0.2-0.8-0.4-0.9c-1.8-1.4-3.7-2.8-5.5-4.1C43,34.8,43.3,33,43.3,31.1z M41.1,38.8c0.2-0.2,0.3-0.5,0.4-0.7
			c0.1,0.1,0.2,0.2,0.4,0.2c1.1,0.8,2.2,1.6,3.3,2.4c0.4,0.3,0.4,0.4-0.1,0.1C43.7,40.3,42.4,39.6,41.1,38.8
			C41.1,38.8,41.1,38.8,41.1,38.8z M38.1,41.9C38.1,41.9,38.1,41.9,38.1,41.9c0.1-0.1,0.2-0.2,0.4-0.3c0.5-0.4,0.9-0.8,1.3-1.2
			c0.1,0.1,0.2,0.1,0.4,0.2c3,2,6,4,9,6c0,0,0,0,0,0c-0.4,0.5-0.8,1-1.3,1.5c0,0,0,0,0,0C44.7,46,41.4,43.9,38.1,41.9z M28.1,44.8
			c4.5,2.8,9.2,5.5,13.9,8.1c-1.7,1-3.6,1.7-5.5,2.2C25.8,48.3,14.4,42.7,3.8,35.8c-0.3-1.4-0.4-2.9-0.5-4.3c0,0,0.1,0,0.1,0.1
			c4.8,2.3,9.6,4.8,14.3,7.3C20.4,42.4,24.1,44.4,28.1,44.8z M15,31.9c0,0,0.1,0,0.1,0.1c0.1,0.9,0.3,1.7,0.5,2.5
			c-4-2.8-7.9-5.6-11.8-8.5c0,0-0.1,0-0.1-0.1c0-0.2,0.1-0.4,0.1-0.6c0,0,0.1,0.1,0.1,0.1C7.8,27.4,11.4,29.7,15,31.9z M14.9,29.8
			c0.1,0,0.1,0,0.1,0.1c0,0,0,0.1,0,0.1C15,29.9,14.9,29.9,14.9,29.8c-1-0.6-2-1.2-3-1.8c-0.5-0.3-0.5-0.3,0,0
			C12.9,28.5,13.9,29.1,14.9,29.8z M15.2,26.7c-0.1,0.4-0.1,0.8-0.1,1.1c0,0,0,0,0,0c-3.3-2-6.6-4.1-9.9-6.1c-0.1,0-0.1,0-0.2-0.1
			c0-0.1,0-0.1,0.1-0.2c0.1,0,0.1,0.1,0.2,0.1C8.6,23.2,11.9,24.9,15.2,26.7z M10.9,22.2c0.3,0.2,0.1,0.2-0.4-0.1
			c-1.5-0.8-3.1-1.6-4.6-2.3c-0.1,0-0.2,0-0.2-0.1c0.1-0.3,0.3-0.7,0.5-1c0.1-0.2,0.2-0.4,0.4-0.6c0.1,0.1,0.1,0.1,0.2,0.2
			c0.8,0.6,1.6,1.1,2.4,1.6c0.5,0.3,0.9,0.9,1,1.2c0.1,0.3,0.2,0.5,0.3,0.6C10.6,21.9,10.8,22,10.9,22.2z M26.6,21.6
			C26.6,21.6,26.6,21.6,26.6,21.6c-0.1,0.3-1.2,2.4-2.3,3.4c-0.3-0.2-0.6-0.3-0.9-0.4c-0.3-0.2-0.5-0.3-0.8-0.5
			c-0.5-1.5-1.1-3.1-2.2-4.1c-0.1-0.1-0.3-0.2-0.5-0.2c-0.9,0.3-1.6,0.8-2.2,1.4c-3.1-1.8-6.3-3.6-9.4-5.5c-0.1,0-0.1,0-0.2-0.1
			c0.6-0.8,1.2-1.6,1.9-2.3c0,0,0,0,0,0c2,0.7,4,1.4,6,2.3c1.7,0.9,3.3,1.8,5,2.6C22.9,19.4,24.7,20.5,26.6,21.6z M25.4,17.5
			c-2-0.8-4-1.6-6-2.4c-0.5-0.2-1.3-0.6-1.8-0.9c-1.7-1-3.4-2.1-5.1-3.1c0.1,0,0.1-0.1,0.2-0.1c4.3,2,8.5,4.2,12.7,6.5
			C26,17.6,26,17.7,25.4,17.5z M29.7,16.6c-0.1,0.2-0.3,0.5-0.4,0.7c0,0,0,0-0.1-0.1c-4.8-2.8-9.7-5.3-14.6-7.7
			c0.1-0.1,0.2-0.3,0.3-0.4c0,0,0,0,0,0C19.7,11.7,24.7,14.2,29.7,16.6C29.6,16.6,29.6,16.6,29.7,16.6z M32.2,12.3
			C32.2,12.3,32.3,12.3,32.2,12.3c-0.5,0.9-1,1.8-1.6,2.7c0,0,0,0-0.1,0c-5-2.5-10.1-4.9-15-7.5c-0.1,0-0.1-0.1-0.2-0.1
			c-0.1-1.1-0.7-2.3-1.2-3.4c4.1,1.9,8.2,3.8,12.3,5.7C28.4,10.6,30.3,11.4,32.2,12.3z M25.9,4.5c2.5,0.6,4.9,1.2,7.4,1.7
			c1.6,0.4,2.5,0.4,1.5,2c-0.3,0.6-0.7,1.1-1,1.7c0,0,0,0-0.1-0.1c-3.9-2.1-7.7-4.2-11.6-6.4C24,4,25.5,4.4,25.9,4.5z M16.4,2.4
			C17.6,3,18.8,3.7,20,4.4c0.5,0.3,0.5,0.3,0,0.1c-1.6-0.8-3.2-1.5-4.9-2.2C15.5,2.3,15.9,2.3,16.4,2.4z"/>
	</g>
</g>
</svg>
