<?xml version="1.0" encoding="utf-8"?>
<svg version="1.0" xmlns="http://www.w3.org/2000/svg" xmlns:xlink="http://www.w3.org/1999/xlink" x="0px" y="0px"
	 viewBox="0 0 595.3 796.9" style="enable-background:new 0 0 595.3 796.9;" xml:space="preserve">
<style type="text/css">
	.st0{fill:#FFFFFF;}
	.st1{fill:#FFFFFF;stroke:#5D78BA;stroke-width:4;stroke-miterlimit:10;}
	.st2{fill:#FFFFFF;stroke:#5D78BA;stroke-width:7;stroke-miterlimit:10;}
	.st3{fill:#5D78BA;}
	.st4{fill:none;}
	.st5{font-family:'ChalkboardSE-Bold';}
	.st6{font-size:36px;}
	.st7{font-family:'PTSans-NarrowBold';}
	.st8{font-size:18px;}
	.st9{font-size:12px;}
	.st10{font-size:14px;}
	.st11{fill:none;stroke:#000000;stroke-width:4;stroke-miterlimit:10;}
	.st12{fill:#465584;}
	.st13{fill:none;stroke:#000000;stroke-width:4;stroke-miterlimit:10;stroke-dasharray:11.777,11.777;}
	.st14{fill:none;stroke:#000000;stroke-width:4;stroke-miterlimit:10;stroke-dasharray:12.3434,12.3434;}
	.st15{fill:none;stroke:#000000;stroke-width:4;stroke-miterlimit:10;stroke-dasharray:11.0434,11.0434;}
	.st16{fill:none;stroke:#000000;stroke-width:4;stroke-miterlimit:10;stroke-dasharray:12.3494,12.3494;}
	.st17{fill:none;stroke:#000000;stroke-width:4;stroke-miterlimit:10;stroke-dasharray:12;}
	.st18{letter-spacing:3;}
	.st19{font-size:21px;}
	.st20{fill:none;stroke:#5D78BA;stroke-width:4;stroke-miterlimit:10;}
	.st21{fill:#1B3F92;}
</style>
<g id="achtergrond">
	<rect class="st0" width="595.3" height="796.9"/>
</g>
<g id="browser">
	<path class="st1" d="M270.5,769.1H35.7c-10.1,0-18.3-7.7-18.3-17.1V197.8v-14.9c0-9.5,8.2-17.1,18.3-17.1h234.9
		c10.1,0,18.3,7.7,18.3,17.1v20.3v548.8C288.8,761.4,280.6,769.1,270.5,769.1z"/>
	<line class="st1" x1="17.4" y1="198.2" x2="288.8" y2="198.2"/>
	<line class="st1" x1="17.4" y1="504.3" x2="288.8" y2="504.3"/>
	<line class="st1" x1="17.4" y1="516.4" x2="288.8" y2="516.4"/>
	<line class="st2" x1="125.7" y1="182" x2="268.2" y2="182"/>
	<circle class="st3" cx="68.5" cy="181" r="5.4"/>
	<circle class="st3" cx="84.6" cy="181" r="5.4"/>
	<circle class="st3" cx="100.7" cy="181" r="5.4"/>
	<rect x="38.6" y="176.6" class="st2" width="15.1" height="9.6"/>
	<rect x="17.4" y="118" class="st4" width="268.8" height="34.5"/>
	<text transform="matrix(1 0 0 1 84.0457 144.2812)" class="st3 st5 st6">Browser</text>
	<rect x="146.9" y="33.3" class="st4" width="268.8" height="34.5"/>
	<text transform="matrix(1 0 0 1 234.7838 59.605)" class="st3 st5 st6">AJAX</text>
	<rect x="317.4" y="118" class="st4" width="268.8" height="34.5"/>
	<text transform="matrix(1 0 0 1 395.7806 144.2812)" class="st3 st5 st6">Server</text>
</g>
<g id="inhoud_browser">
	<text transform="matrix(1 0 0 1 41.8777 255.8018)"><tspan x="0" y="0" class="st3 st7 st8">Event</tspan><tspan x="35.9" y="0" class="st7 st9"> </tspan><tspan x="0" y="14.4" class="st7 st9">bijv. een venster wordt geladen of op een knop geklikt</tspan></text>
	<rect x="17.4" y="328.6" class="st4" width="268.8" height="15.1"/>
	<text transform="matrix(1 0 0 1 79.0869 338.4111)"><tspan x="0" y="0" class="st3 st7 st10">AJAX call</tspan><tspan x="45.8" y="0" class="st7 st10"> wordt aangeroepen</tspan></text>
	<g>
		<path class="st3" d="M153.4,280.1h3.4v17.2h-3.4V280.1z M147.7,280.1h3.4v17.2h-3.4V280.1z"/>
		<path class="st3" d="M150.3,316.4l-8-17.2h3.9l5.6,12.3c0.9-2,1.9-4.1,2.8-6.2c1-2.1,1.9-4.1,2.8-6.1l3.9,0l-8,17.2H150.3z"/>
	</g>
	<path class="st11" d="M259.6,479.8H44.4c-5.9,0-10.6-4.7-10.6-10.6v-90.4c0-5.9,4.7-10.6,10.6-10.6h215.2c5.9,0,10.6,4.7,10.6,10.6
		v90.4C270.2,475,265.4,479.8,259.6,479.8z"/>
	<rect x="41.9" y="381.8" class="st4" width="219.4" height="11.5"/>
	<text transform="matrix(1 0 0 1 67.0947 391.6489)" class="st7 st10">Maak een XMLHttpRequest object</text>
	<g>
		<path class="st3" d="M153.5,410.1h3.4v17.2h-3.4V410.1z M147.9,410.1h3.4v17.2h-3.4V410.1z"/>
		<path class="st3" d="M150.5,446.4l-8-17.2h3.9l5.6,12.3c0.9-2,1.9-4.1,2.8-6.2c1-2.1,1.9-4.1,2.8-6.1l3.9,0l-8,17.2H150.5z"/>
	</g>
	<g>
		<path class="st3" d="M153.4,672.5h3.4v17.2h-3.4V672.5z M147.7,672.5h3.4v17.2h-3.4V672.5z"/>
		<path class="st3" d="M150.3,708.9l-8-17.2h3.9l5.6,12.3c0.9-2,1.9-4.1,2.8-6.2c1-2.1,1.9-4.1,2.8-6.1l3.9,0l-8,17.2H150.3z"/>
	</g>
	<rect x="41.4" y="453.5" class="st4" width="219.4" height="11.5"/>
	<text transform="matrix(1 0 0 1 78.8244 463.3294)"><tspan x="0" y="0" class="st7 st10">Verstuur HttpRequest </tspan><tspan x="110.8" y="0" class="st12 st7 st10">.send()</tspan></text>
	<g>
		<g>
			<line class="st11" x1="223.9" y1="459.3" x2="229.9" y2="459.3"/>
			<line class="st13" x1="241.7" y1="459.3" x2="306.4" y2="459.3"/>
			<polyline class="st11" points="312.3,459.3 318.3,459.3 318.3,453.3 			"/>
			<line class="st14" x1="318.3" y1="440.9" x2="318.3" y2="299"/>
			<polyline class="st11" points="318.3,292.8 318.3,286.8 324.3,286.8 			"/>
			<line class="st15" x1="335.4" y1="286.8" x2="440.3" y2="286.8"/>
			<polyline class="st11" points="445.8,286.8 451.8,286.8 451.8,292.8 			"/>
			<line class="st16" x1="451.8" y1="305.2" x2="451.8" y2="373.1"/>
			<line class="st11" x1="451.8" y1="379.3" x2="451.8" y2="385.3"/>
		</g>
	</g>
	<g>
		<path d="M450.3,398.5l-8-17.2h3.9l5.6,12.3c0.9-2,1.9-4.1,2.8-6.2c1-2.1,1.9-4.1,2.8-6.1l3.9,0l-8,17.2H450.3z"/>
	</g>
	<rect x="387.9" y="419.5" class="st4" width="151.1" height="35.3"/>
	<text transform="matrix(1 0 0 1 387.9209 429.332)"><tspan x="0" y="0" class="st7 st10">script op de server verwerkt </tspan><tspan x="0" y="16.8" class="st7 st10">de HttpRequest</tspan></text>
	<polyline class="st17" points="451.2,535.1 451.8,636.5 317.4,633.6 317.4,554.5 261.3,553.2 	"/>
	<g>
		<path d="M241.2,550.6l17.2-8v3.9l-12.3,5.6c2,0.9,4.1,1.9,6.2,2.8c2.1,1,4.1,1.9,6.1,2.8l0,3.9l-17.2-8V550.6z"/>
	</g>
	<path class="st11" d="M260.7,661.7H45.5c-5.9,0-10.6-4.7-10.6-10.6v-67.5c0-5.9,4.7-10.6,10.6-10.6h215.2c5.9,0,10.6,4.7,10.6,10.6
		v67.5C271.3,657,266.5,661.7,260.7,661.7z"/>
	<rect x="34.9" y="547.1" class="st4" width="235.3" height="15.1"/>
	<text transform="matrix(1 0 0 1 71.2459 556.8662)"><tspan x="0" y="0" class="st3 st7 st10">AJAX callback</tspan><tspan x="68.5" y="0" class="st7 st10">-functie aanroepen</tspan></text>
	<rect x="53.8" y="605" class="st4" width="209.5" height="31.5"/>
	<text transform="matrix(1 0 0 1 53.7554 614.7888)"><tspan x="0" y="0" class="st7 st10">Verwerk de response van de server </tspan><tspan x="0" y="16.8" class="st7 st10">met JavaScript</tspan></text>
	<rect x="47.2" y="727.9" class="st4" width="209.5" height="31.5"/>
	<text transform="matrix(1 0 0 1 47.2438 737.6921)"><tspan x="0" y="0" class="st7 st10">De</tspan><tspan x="13.5" y="0" class="st7 st10 st18"> </tspan><tspan x="19.5" y="0" class="st7 st10">pagina</tspan><tspan x="53" y="0" class="st7 st10 st18"> </tspan><tspan x="59.1" y="0" class="st7 st10">wordt</tspan><tspan x="88.1" y="0" class="st7 st10 st18"> </tspan><tspan x="94.1" y="0" class="st7 st10">bijgewerkt</tspan><tspan x="147.1" y="0" class="st7 st10 st18"> </tspan><tspan x="153.2" y="0" class="st7 st10">zonder</tspan><tspan x="187.3" y="0" class="st7 st10 st18"> </tspan><tspan x="193.4" y="0" class="st7 st10">dat </tspan><tspan x="0" y="16.8" class="st7 st10">deze herladen wordt</tspan></text>
	<rect x="17.4" y="67.9" class="st4" width="561.9" height="15.6"/>
	<text transform="matrix(1 0 0 1 171.1796 82.5628)"><tspan x="0" y="0" class="st12 st7 st19">A</tspan><tspan x="10.5" y="0" class="st7 st19">synchronous </tspan><tspan x="107.8" y="0" class="st12 st7 st19">J</tspan><tspan x="113.8" y="0" class="st7 st19">avaScript </tspan><tspan x="186.8" y="0" class="st12 st7 st19">A</tspan><tspan x="197.3" y="0" class="st7 st19">nd </tspan><tspan x="220.4" y="0" class="st12 st7 st19">X</tspan><tspan x="231.5" y="0" class="st7 st19">ML</tspan></text>
</g>
<g id="server">
	<path class="st20" d="M548.5,463.9H353.9c-8.9,0-16-7.2-16-16v-26.4c0-8.9,7.2-16,16-16h194.6c8.9,0,16,7.2,16,16v26.4
		C564.5,456.7,557.3,463.9,548.5,463.9z"/>
	<circle class="st20" cx="362" cy="433.3" r="11.2"/>
	<rect x="334.5" y="212.8" class="st4" width="116.7" height="72.1"/>
	<text transform="matrix(1 0 0 1 368.7461 225.3843)"><tspan x="0" y="0" class="st7 st8">request</tspan><tspan x="-11.6" y="21.6" class="st7 st8">via method </tspan><tspan x="-16.1" y="43.2" class="st21 st7 st8">GET</tspan><tspan x="9.2" y="43.2" class="st7 st8"> of </tspan><tspan x="29.4" y="43.2" class="st21 st7 st8">POST</tspan></text>
	<rect x="387.9" y="483.1" class="st4" width="151.1" height="35.3"/>
	<text transform="matrix(1 0 0 1 387.9209 492.9328)"><tspan x="0" y="0" class="st7 st10">genereert een responce en </tspan><tspan x="0" y="16.8" class="st7 st10">stuurt dat naar de browser</tspan></text>
	<path class="st20" d="M548.5,527.5H353.9c-8.9,0-16-7.2-16-16V485c0-8.9,7.2-16,16-16h194.6c8.9,0,16,7.2,16,16v26.4
		C564.5,520.3,557.3,527.5,548.5,527.5z"/>
	<circle class="st20" cx="362" cy="496.9" r="11.2"/>
	<rect x="319.9" y="644.1" class="st4" width="116.7" height="83.8"/>
	<text transform="matrix(1 0 0 1 341.5875 656.6958)"><tspan x="0" y="0" class="st7 st8">response in</tspan><tspan x="-3.4" y="21.6" class="st21 st7 st8">XML</tspan><tspan x="25.7" y="21.6" class="st7 st8"> ,  </tspan><tspan x="40.3" y="21.6" class="st21 st7 st8">JSON, </tspan><tspan x="-5.6" y="43.2" class="st21 st7 st8">HTML of TXT </tspan><tspan x="11.6" y="64.8" class="st7 st8">formaat</tspan></text>
</g>
</svg>
